<svg xmlns="http://www.w3.org/2000/svg" width="64" height="64" viewBox="0 0 64 64" fill="none">
<path d="M18.4406 27.3386H59.6261C60.2002 27.3384 60.7686 27.4517 61.2988 27.672C61.8289 27.8922 62.3102 28.2152 62.7151 28.6221V28.6296C63.1215 29.0334 63.4441 29.5135 63.6644 30.0423C63.8847 30.5711 63.9985 31.1383 63.9991 31.7111V59.6266C63.9991 60.8266 63.5061 61.9236 62.7151 62.7146C62.3104 63.1218 61.8291 63.445 61.2989 63.6653C60.7688 63.8857 60.2002 63.999 59.6261 63.9986H18.4406C17.8667 63.9983 17.2984 63.8847 16.7684 63.6644C16.2384 63.444 15.7571 63.1213 15.3521 62.7146C14.945 62.31 14.622 61.8289 14.4017 61.2989C14.1813 60.7689 14.0679 60.2006 14.0681 59.6266V31.7111C14.0681 30.5106 14.5606 29.4136 15.3521 28.6221C15.7573 28.2157 16.2387 27.8932 16.7686 27.673C17.2986 27.4528 17.8667 27.3391 18.4406 27.3386ZM59.6261 29.3376H18.4406C18.1294 29.3384 17.8215 29.4007 17.5344 29.5209C17.2474 29.6411 16.987 29.8169 16.7681 30.0381C16.5468 30.257 16.3709 30.5175 16.2506 30.8046C16.1303 31.0918 16.0679 31.3998 16.0671 31.7111V59.6266C16.0671 60.2791 16.3376 60.8756 16.7681 61.3061C16.9874 61.5263 17.248 61.7009 17.5351 61.82C17.8221 61.939 18.1299 62 18.4406 61.9996H59.6261C59.9379 62.0001 60.2467 61.939 60.5349 61.82C60.8231 61.701 61.085 61.5264 61.3056 61.3061C61.526 61.0855 61.7008 60.8236 61.8199 60.5355C61.9391 60.2473 62.0003 59.9385 62.0001 59.6266V31.7111C62.0005 31.3993 61.9394 31.0904 61.8202 30.8022C61.701 30.514 61.5261 30.2521 61.3056 30.0316V30.0386C60.8608 29.5916 60.2567 29.3395 59.6261 29.3376Z" fill="#0097C4"/>
<path d="M30.6839 19.0029H47.3899C48.3409 19.0029 49.2149 19.3914 49.8399 20.0229C50.4644 20.6544 50.8604 21.5224 50.8604 22.4729V29.3369H44.6419V25.0899H33.4324V29.3374H27.2134V22.4729C27.2134 22.0172 27.3032 21.5659 27.4776 21.1449C27.652 20.7239 27.9076 20.3413 28.2299 20.0191C28.5522 19.6969 28.9348 19.4413 29.3558 19.2669C29.7769 19.0926 30.2282 19.0029 30.6839 19.0029ZM47.3894 21.0019H30.6839C30.2809 21.0019 29.9134 21.1679 29.6424 21.4389C29.368 21.7131 29.2135 22.085 29.2129 22.4729V27.3379H31.4334V23.0909H46.6409V27.3384H48.8614V22.4734C48.8614 22.0704 48.6949 21.7029 48.4314 21.4394H48.4239C48.2895 21.301 48.1287 21.1909 47.951 21.1157C47.7733 21.0406 47.5823 21.0019 47.3894 21.0019Z" fill="#0097C4"/>
<path d="M11.042 54.2475C11.5905 54.2475 12.0415 54.691 12.0415 55.2465C12.0402 55.5111 11.9344 55.7645 11.7473 55.9516C11.5601 56.1387 11.3066 56.2443 11.042 56.2455H2.9985C2.1795 56.2455 1.43 55.9055 0.8815 55.3645V55.3575C0.602487 55.08 0.380996 54.7501 0.229729 54.3869C0.0784612 54.0236 0.000392785 53.634 0 53.2405L0 2.998C0 2.179 0.34 1.4295 0.8815 0.8815C1.15897 0.602442 1.48881 0.380923 1.8521 0.229652C2.21539 0.0783816 2.60498 0.000338125 2.9985 0L31.114 0C31.5445 0 31.947 0.0835 32.3225 0.25C32.6991 0.423746 33.0385 0.668753 33.322 0.9715L40.8665 9.0435C40.887 9.0645 40.901 9.085 40.922 9.106C41.1527 9.36579 41.3358 9.66418 41.463 9.9875C41.5915 10.3341 41.6573 10.7008 41.6575 11.0705V15.9705C41.6574 16.2355 41.552 16.4897 41.3646 16.6771C41.1772 16.8645 40.923 16.9699 40.658 16.97C40.5262 16.9707 40.3956 16.9453 40.2737 16.8954C40.1517 16.8455 40.0408 16.772 39.9473 16.6791C39.8538 16.5863 39.7795 16.4759 39.7288 16.3543C39.678 16.2327 39.6518 16.1023 39.6515 15.9705V11.0705C39.6515 10.9315 39.638 10.807 39.596 10.6955C39.5545 10.6046 39.5034 10.5185 39.4435 10.4385C39.4295 10.425 39.415 10.418 39.4015 10.404L31.864 2.332C31.7645 2.22644 31.647 2.13942 31.517 2.075C31.3892 2.02321 31.2524 1.99737 31.1145 1.999H2.9985C2.86756 1.99886 2.73794 2.02524 2.61747 2.07654C2.49699 2.12784 2.38815 2.20301 2.2975 2.2975L2.2905 2.2905C2.11 2.4705 1.999 2.7275 1.999 2.998V53.2405C1.999 53.518 2.11 53.768 2.2905 53.9485L2.2975 53.9555C2.478 54.1295 2.7275 54.2475 2.9985 54.2475H11.042Z" fill="#0097C4"/>
<path d="M35.4105 45.558L18.2605 42.302C17.1015 42.087 16.032 41.5805 15.2625 40.81C14.526 40.0745 14.068 39.11 14.068 37.9505H16.067C16.067 38.5405 16.3035 39.0265 16.678 39.4015C17.157 39.873 17.858 40.1995 18.6285 40.345L35.7785 43.6L35.4105 45.558ZM63.9985 37.9505C63.9985 39.1095 63.5405 40.0675 62.8045 40.803V40.81C62.034 41.5805 60.9655 42.0875 59.8135 42.302L42.663 45.585L42.2885 43.628L59.4385 40.345C60.216 40.1925 60.917 39.8735 61.3955 39.4015C61.5889 39.213 61.7422 38.9872 61.846 38.7378C61.9498 38.4885 62.002 38.2206 61.9995 37.9505H63.9985ZM25.4715 8.93202C26.0265 8.93202 26.471 9.37652 26.471 9.93152C26.4709 10.1966 26.3655 10.4507 26.1781 10.6381C25.9907 10.8255 25.7365 10.9309 25.4715 10.931H11.5215C11.3876 10.9353 11.2542 10.9125 11.1292 10.8642C11.0042 10.8159 10.8903 10.743 10.794 10.6497C10.6978 10.5565 10.6213 10.4449 10.5691 10.3215C10.5168 10.1981 10.4899 10.0655 10.4899 9.93152C10.4899 9.79754 10.5168 9.66492 10.5691 9.54155C10.6213 9.41817 10.6978 9.30656 10.794 9.21333C10.8903 9.1201 11.0042 9.04715 11.1292 8.99883C11.2542 8.95051 11.3876 8.92779 11.5215 8.93202H25.4715ZM6.7595 8.93202C7.315 8.93202 7.7665 9.37652 7.7665 9.93152C7.76491 10.1974 7.65807 10.4519 7.46935 10.6392C7.28063 10.8265 7.0254 10.9314 6.7595 10.931H6.0105C5.4615 10.931 5.0105 10.48 5.0105 9.93152C5.01063 9.66639 5.11605 9.41217 5.30357 9.22474C5.49109 9.03731 5.74537 8.93202 6.0105 8.93202H6.7595ZM18.8985 18.0035C19.447 18.0035 19.898 18.454 19.898 19.003C19.898 19.558 19.447 20.002 18.8985 20.002H11.521C11.2627 19.992 11.0183 19.8824 10.8391 19.6961C10.6598 19.5098 10.5597 19.2613 10.5597 19.0028C10.5597 18.7443 10.6598 18.4958 10.8391 18.3095C11.0183 18.1232 11.2627 18.0135 11.521 18.0035H18.8985ZM6.76 18.0035C7.315 18.0035 7.7665 18.454 7.7665 19.003C7.7665 19.558 7.3155 20.002 6.76 20.002H6.0105C5.74545 20.002 5.49125 19.8968 5.30374 19.7095C5.11624 19.5222 5.01076 19.2681 5.0105 19.003C5.0105 18.4545 5.4615 18.0035 6.0105 18.0035H6.76ZM25.4715 13.471C26.0265 13.471 26.471 13.9155 26.471 14.4705C26.4709 14.7356 26.3655 14.9897 26.1781 15.1771C25.9907 15.3645 25.7365 15.4699 25.4715 15.47H11.5215C11.3876 15.4743 11.2542 15.4515 11.1292 15.4032C11.0042 15.3549 10.8903 15.282 10.794 15.1887C10.6978 15.0955 10.6213 14.9839 10.5691 14.8605C10.5168 14.7371 10.4899 14.6045 10.4899 14.4705C10.4899 14.3365 10.5168 14.2039 10.5691 14.0805C10.6213 13.9572 10.6978 13.8456 10.794 13.7523C10.8903 13.6591 11.0042 13.5862 11.1292 13.5378C11.2542 13.4895 11.3876 13.4668 11.5215 13.471H25.4715ZM6.7595 13.471C7.315 13.471 7.7665 13.9155 7.7665 14.4705C7.76478 14.7364 7.6579 14.9907 7.4692 15.178C7.28051 15.3653 7.02536 15.4703 6.7595 15.47H6.0105C5.4615 15.47 5.0105 15.019 5.0105 14.4705C5.01063 14.2054 5.11605 13.9512 5.30357 13.7637C5.49109 13.5763 5.74537 13.471 6.0105 13.471H6.7595ZM32.1415 0.367523L41.24 10.244C41.4185 10.4391 41.5122 10.6971 41.5004 10.9612C41.4887 11.2254 41.3726 11.474 41.1775 11.6525C40.9944 11.8221 40.7541 11.9164 40.5045 11.9165H34.2375C33.7292 11.9163 33.226 11.8157 32.7567 11.6204C32.2874 11.4251 31.8614 11.139 31.503 10.7785L31.4405 10.716C30.7496 9.99796 30.3639 9.04002 30.3645 8.04352V0.999523C30.3646 0.734394 30.47 0.480168 30.6576 0.29274C30.8451 0.105312 31.0994 2.34044e-05 31.3645 2.34375e-05C31.676 2.34375e-05 31.954 0.145523 32.1415 0.367523ZM38.2285 9.91802L32.3635 3.56002V8.04402C32.3627 8.52085 32.544 8.97998 32.8705 9.32752L32.9125 9.36952C33.0865 9.54346 33.2931 9.68138 33.5205 9.77541C33.7478 9.86944 33.9915 9.91773 34.2375 9.91752L38.2285 9.91802ZM45.4465 5.38552C45.4206 5.51405 45.3694 5.63614 45.2958 5.74469C45.2223 5.85323 45.1279 5.94606 45.0181 6.01777C44.9083 6.08947 44.7854 6.13863 44.6564 6.16236C44.5275 6.1861 44.3951 6.18394 44.267 6.15602C44.1389 6.13007 44.0171 6.07912 43.9087 6.00609C43.8003 5.93305 43.7073 5.83937 43.6351 5.73039C43.5629 5.62141 43.5128 5.49926 43.4879 5.37094C43.4629 5.24262 43.4634 5.11063 43.4895 4.98252L43.8715 3.16402L44.371 0.797523C44.4175 0.572265 44.5402 0.369904 44.7184 0.224479C44.8966 0.0790538 45.1195 -0.000562094 45.3495 -0.000976562H48.8475C49.354 -0.000976562 49.771 0.374023 49.84 0.866523L50.5755 4.36452C51.089 4.51052 51.589 4.68402 52.0745 4.88502C52.5675 5.08652 53.046 5.32252 53.504 5.57952L56.565 3.58052C56.756 3.4574 56.9833 3.40336 57.2093 3.42737C57.4352 3.45139 57.6462 3.55201 57.807 3.71252H57.8145L59.05 4.94802C59.0635 4.96902 59.0845 4.98302 59.099 5.00352L60.2855 6.19052C60.632 6.53052 60.6675 7.07202 60.397 7.46052L58.4185 10.493C58.6811 10.9549 58.9152 11.4325 59.1195 11.923C59.314 12.4085 59.4875 12.9085 59.633 13.422L63.2005 14.1785C63.4352 14.2244 63.6453 14.3537 63.7921 14.5425C63.9389 14.7312 64.0124 14.9668 63.999 15.2055V18.649C63.999 19.1555 63.6245 19.579 63.1315 19.6415L59.6335 20.377C59.4906 20.8859 59.3192 21.3864 59.12 21.876C58.8338 22.5667 58.4878 23.2311 58.086 23.8615C58.0166 23.9735 57.9255 24.0706 57.8182 24.147C57.7109 24.2235 57.5894 24.2778 57.4609 24.3069C57.3323 24.3359 57.1993 24.3391 57.0695 24.3162C56.9398 24.2933 56.8158 24.2448 56.705 24.1735C56.4814 24.0307 56.3236 23.805 56.2663 23.546C56.2091 23.287 56.257 23.0158 56.3995 22.792C57.0696 21.7392 57.5555 20.58 57.8365 19.364C57.8695 19.1662 57.9613 18.983 58.1 18.8381C58.2387 18.6933 58.4178 18.5936 58.614 18.552L62 17.844V16.9H62.007V15.963L58.613 15.248C58.4256 15.2089 58.2534 15.1168 58.1169 14.9827C57.9803 14.8486 57.8851 14.6781 57.8425 14.4915C57.7077 13.8742 57.5173 13.2704 57.2735 12.6875C57.0308 12.1035 56.738 11.5416 56.3985 11.008C56.2977 10.8464 56.2448 10.6595 56.246 10.469C56.2473 10.2785 56.3026 10.0923 56.4055 9.93202L58.301 7.03102L57.6895 6.41352C57.669 6.40002 57.6555 6.38552 57.634 6.36452L56.968 5.69852L54.129 7.55152C53.9674 7.67555 53.7715 7.74675 53.5679 7.75543C53.3644 7.76411 53.1631 7.70984 52.9915 7.60002C52.4577 7.26097 51.8958 6.9684 51.312 6.72552C50.7431 6.49029 50.1558 6.30233 49.556 6.16352C49.3586 6.13139 49.1757 6.03971 49.0318 5.90075C48.888 5.7618 48.79 5.58221 48.751 5.38602L48.035 1.99852H46.154L45.828 3.56702L45.4465 5.38552ZM47.0985 10.709C46.543 10.709 46.0985 10.2645 46.0985 9.70952C46.0985 9.15452 46.543 8.71002 47.0985 8.71002C49.3605 8.71002 51.408 9.62652 52.8935 11.1115C53.6542 11.8711 54.2573 12.7735 54.6682 13.7669C55.0791 14.7603 55.2898 15.825 55.288 16.9C55.2893 17.4881 55.2265 18.0746 55.1005 18.649C54.9751 19.2222 54.7892 19.7805 54.546 20.3145C54.4353 20.5555 54.2335 20.7428 53.9849 20.8352C53.7363 20.9276 53.4613 20.9177 53.22 20.8075C53.1014 20.7529 52.9948 20.6754 52.9062 20.5795C52.8176 20.4836 52.7488 20.3712 52.7037 20.2487C52.6586 20.1262 52.6382 19.996 52.6434 19.8655C52.6487 19.7351 52.6797 19.607 52.7345 19.4885C52.9145 19.1 53.0535 18.6765 53.1505 18.232C53.241 17.802 53.2895 17.3575 53.2895 16.8995C53.2895 15.192 52.5955 13.644 51.478 12.52C50.3155 11.3604 48.7405 10.7091 47.0985 10.709Z" fill="#0097C4"/>
<path d="M35.737 37.979H42.337C42.858 37.979 43.3295 38.194 43.67 38.5335L43.677 38.5405C44.0318 38.8963 44.2313 39.378 44.232 39.8805V47.196C44.232 48.6255 43.6495 49.9235 42.705 50.867C41.7685 51.8115 40.4635 52.3945 39.0335 52.3945C37.6035 52.3945 36.3055 51.8115 35.362 50.867C34.4245 49.9235 33.8345 48.626 33.8345 47.196V39.8805C33.8345 39.36 34.05 38.8805 34.397 38.5405V38.5335C34.7537 38.1802 35.2349 37.981 35.737 37.979ZM42.2335 39.978H35.841V47.196C35.8402 47.6153 35.9226 48.0306 36.0834 48.4179C36.2443 48.8051 36.4803 49.1566 36.778 49.452C37.0733 49.75 37.4246 49.9868 37.8116 50.1487C38.1987 50.3106 38.6139 50.3945 39.0335 50.3955C39.4542 50.3953 39.8707 50.3118 40.259 50.1499C40.6473 49.9879 40.9997 49.7508 41.296 49.452C41.8946 48.8536 42.2317 48.0424 42.2335 47.196V39.978Z" fill="#0097C4"/>
<path d="M39.0329 48.063C39.585 48.063 40.0324 47.6155 40.0324 47.0635C40.0324 46.5115 39.585 46.064 39.0329 46.064C38.4809 46.064 38.0334 46.5115 38.0334 47.0635C38.0334 47.6155 38.4809 48.063 39.0329 48.063Z" fill="#0097C4"/>
<script xmlns=""/></svg>