<svg width="100%" height="100%" viewBox="0 0 64 64" fill="none" xmlns="http://www.w3.org/2000/svg">
  <g clip-path="url(#clip0_1057_14293)">
    <path
      d="M62.2184 48.4625C60.5684 46.6625 52.9599 41.035 50.0754 39.0305C49.8704 38.8875 49.6754 38.765 49.4849 38.646C52.5109 35.583 56.0734 30.569 56.0734 23.9125C56.1014 21.0735 55.5319 18.2603 54.402 15.6557C53.2721 13.0511 51.607 10.7133 49.5149 8.79397C47.2771 6.77687 44.6584 5.22772 41.813 4.23766C38.9676 3.24761 35.953 2.83665 32.9464 3.02897L32.2169 1.62297C32.0746 1.3467 31.8789 1.10144 31.641 0.901452C31.4032 0.70146 31.128 0.550714 30.8314 0.457967C30.4546 0.342136 30.055 0.321376 29.6683 0.39754C29.2815 0.473705 28.9196 0.644425 28.6149 0.894467C28.1999 1.25308 27.9194 1.74224 27.8194 2.28149C27.7195 2.82074 27.806 3.37796 28.0649 3.86147L32.0534 11.4C32.3447 11.9367 32.8354 12.3372 33.4196 12.515C34.0037 12.6928 34.6344 12.6336 35.1753 12.3502C35.7162 12.0668 36.1238 11.5819 36.3101 11.0004C36.4964 10.4189 36.4464 9.78742 36.1709 9.24247L35.2749 7.51697C39.4279 7.70321 43.3871 9.327 46.4749 12.1105C48.1157 13.6011 49.4195 15.4249 50.299 17.4598C51.1785 19.4947 51.6135 21.6939 51.5749 23.9105C51.5749 30.6025 46.7654 35.3105 44.2809 37.2985C43.5641 37.2572 42.8474 37.2134 42.1309 37.167V32.75H43.5499C43.8523 32.7544 44.1526 32.6987 44.4333 32.5861C44.714 32.4735 44.9695 32.3062 45.1849 32.0939C45.4004 31.8816 45.5715 31.6286 45.6882 31.3496C45.805 31.0706 45.8652 30.7712 45.8652 30.4687C45.8652 30.1663 45.805 29.8668 45.6882 29.5878C45.5715 29.3088 45.4004 29.0558 45.1849 28.8436C44.9695 28.6313 44.714 28.464 44.4333 28.3513C44.1526 28.2387 43.8523 28.183 43.5499 28.1875H27.1144C26.5152 28.1963 25.9436 28.4406 25.523 28.8674C25.1024 29.2943 24.8667 29.8695 24.8667 30.4687C24.8667 31.068 25.1024 31.6431 25.523 32.07C25.9436 32.4968 26.5152 32.7411 27.1144 32.75H34.9329V36.686C31.3564 36.439 28.2494 36.218 28.1779 36.213C27.7368 36.1914 27.315 36.0252 26.9779 35.74C26.4499 35.2864 25.9252 34.8288 25.4039 34.3675C22.3429 31.678 17.2204 27.1765 14.8874 26.246C13.1999 25.5745 10.5499 25.455 7.39489 28.523C7.1154 28.7475 6.89168 29.0337 6.74127 29.3591C6.59085 29.6846 6.51782 30.0404 6.52789 30.3988C6.53797 30.7572 6.63087 31.1084 6.79933 31.4248C6.96779 31.7413 7.20723 32.0145 7.49889 32.223L22.6324 43.716C23.8996 44.6817 25.42 45.2587 27.0089 45.377C28.3524 45.4805 30.1799 45.611 32.1689 45.749V58H19.9419C18.8736 57.9965 17.829 58.3149 16.9443 58.9138C16.0597 59.5127 15.376 60.3643 14.9824 61.3575C14.8985 61.5668 14.8673 61.7936 14.8913 62.0178C14.9154 62.242 14.9941 62.457 15.1206 62.6437C15.247 62.8305 15.4173 62.9834 15.6165 63.0891C15.8157 63.1948 16.0379 63.25 16.2634 63.25H45.8199C46.0454 63.2499 46.2674 63.1946 46.4666 63.0889C46.6658 62.9832 46.836 62.8302 46.9624 62.6435C47.0888 62.4568 47.1675 62.2419 47.1917 62.0177C47.2158 61.7935 47.1846 61.5668 47.1009 61.3575C46.7074 60.365 46.0243 59.514 45.1405 58.9151C44.2566 58.3163 43.213 57.9974 42.1454 58V46.42L43.7024 46.523L43.9469 46.539C44.8378 46.5968 45.6911 46.9198 46.3969 47.4665L58.1519 56.5455C58.4281 56.7624 58.7499 56.9139 59.0931 56.9886C59.4363 57.0633 59.792 57.0592 60.1334 56.9768C60.4748 56.8943 60.793 56.7355 61.0643 56.5124C61.3355 56.2893 61.5526 56.0076 61.6994 55.6885C61.8424 55.444 61.9959 55.199 62.1534 54.9505C63.1914 53.315 64.6119 51.075 62.2184 48.4625ZM34.8474 10.677C34.7805 10.8134 34.6773 10.9286 34.549 11.01C34.4207 11.0914 34.2724 11.1357 34.1205 11.138C33.9686 11.1403 33.8191 11.1006 33.6884 11.0232C33.5576 10.9458 33.4509 10.8338 33.3799 10.6995L29.3924 3.16547C29.2938 2.98727 29.2575 2.78132 29.289 2.58014C29.3205 2.37896 29.4181 2.19401 29.5664 2.05447C29.6777 1.96054 29.8109 1.89615 29.9537 1.86722C30.0965 1.8383 30.2443 1.84578 30.3834 1.88897C30.4906 1.92339 30.59 1.97865 30.6758 2.05159C30.7616 2.12452 30.8321 2.21369 30.8834 2.31397L34.8399 9.93397C34.8998 10.0484 34.9318 10.1754 34.9331 10.3046C34.9344 10.4337 34.905 10.5614 34.8474 10.677ZM53.0734 23.9125C53.1144 21.4874 52.6373 19.0816 51.6741 16.8557C50.7109 14.6298 49.2837 12.6351 47.4879 11.005C43.9186 7.79223 39.2901 6.00845 34.4879 5.99497L33.7104 4.49497C39.1542 4.31298 44.4562 6.25067 48.4999 9.89997C50.4379 11.6794 51.98 13.8466 53.0261 16.2608C54.0721 18.6749 54.5988 21.2821 54.5719 23.913C54.5719 30.313 50.9784 35.1035 48.0799 37.9305C47.5258 37.7196 46.9496 37.5721 46.3624 37.491C49.1459 34.9715 53.0734 30.289 53.0734 23.9125ZM27.1144 31.25C26.9106 31.2448 26.7169 31.1602 26.5746 31.0143C26.4323 30.8683 26.3527 30.6726 26.3527 30.4687C26.3527 30.2649 26.4323 30.0691 26.5746 29.9231C26.7169 29.7772 26.9106 29.6926 27.1144 29.6875H43.5499C43.6541 29.6848 43.7579 29.7031 43.855 29.7412C43.9521 29.7792 44.0406 29.8364 44.1152 29.9092C44.1899 29.982 44.2492 30.069 44.2898 30.1651C44.3303 30.2612 44.3512 30.3644 44.3512 30.4687C44.3512 30.573 44.3303 30.6762 44.2898 30.7723C44.2492 30.8684 44.1899 30.9555 44.1152 31.0283C44.0406 31.1011 43.9521 31.1582 43.855 31.1963C43.7579 31.2343 43.6541 31.2526 43.5499 31.25H27.1144ZM40.6279 32.75V37.0715C39.3139 36.985 37.8659 36.8875 36.4329 36.789V32.75H40.6279ZM45.6379 61.75H16.4454C16.7488 61.0775 17.2405 60.5072 17.8609 60.1079C18.4814 59.7086 19.2041 59.4975 19.9419 59.5H42.1419C42.8796 59.4977 43.6022 59.709 44.2225 60.1082C44.8428 60.5074 45.3344 61.0776 45.6379 61.75ZM33.6689 58V45.85C36.0449 46.013 38.5284 46.1785 40.6454 46.319V58H33.6689ZM60.3599 55.01C60.3461 55.0362 60.3339 55.0633 60.3234 55.091C60.2662 55.199 60.186 55.2931 60.0884 55.3668C59.9908 55.4405 59.8783 55.4918 59.7587 55.5173C59.6392 55.5428 59.5155 55.5417 59.3964 55.5142C59.2773 55.4866 59.1657 55.4333 59.0694 55.358L47.3144 46.279C46.3723 45.5501 45.234 45.1194 44.0454 45.042L43.8014 45.026C39.7104 44.7565 31.1979 44.196 27.1224 43.8815C25.8218 43.7845 24.5773 43.3123 23.5399 42.522L8.41089 31.0315C8.25045 30.9144 8.1336 30.7473 8.07881 30.5564C8.02403 30.3655 8.03443 30.1618 8.10839 29.9775C8.1359 29.9245 8.16838 29.8743 8.20539 29.8275C8.26689 29.7655 8.32789 29.7065 8.38889 29.646C8.49938 29.5664 8.62756 29.5149 8.76239 29.496C8.79786 29.4913 8.83362 29.4892 8.86939 29.4895C9.0552 29.4895 9.23572 29.5514 9.38239 29.6655L24.5689 41.3935C25.2711 41.9368 26.1199 42.2574 27.0059 42.314L44.3684 43.464C45.7552 43.5538 47.0841 44.0536 48.1864 44.9L60.0964 54.0275C60.1845 54.0948 60.2583 54.179 60.3136 54.2751C60.3689 54.3713 60.4045 54.4774 60.4184 54.5875C60.4362 54.731 60.416 54.8767 60.3599 55.01ZM61.4234 53.26C61.3046 53.1019 61.166 52.9597 61.0109 52.837L49.0999 43.7095C47.7631 42.6824 46.1512 42.0757 44.4689 41.9665L27.1054 40.8165C26.5171 40.7796 25.9534 40.5669 25.4874 40.206L10.2999 28.478C10.2118 28.4139 10.1194 28.3559 10.0234 28.3045C11.5274 27.3245 12.9704 27.098 14.3299 27.6395C16.4224 28.4735 21.6194 33.0395 24.4114 35.4945C24.9392 35.9616 25.4706 36.4248 26.0054 36.884C26.5911 37.381 27.3242 37.6712 28.0914 37.71C28.2129 37.719 40.3044 38.5805 44.3214 38.8055C46.5329 38.929 47.5284 39.0865 49.2214 40.2615C52.5614 42.583 59.7129 47.945 61.1149 49.475C62.3854 50.865 62.1784 51.92 61.4234 53.262V53.26ZM7.04639 26.782C7.36484 26.7239 7.66765 26.5999 7.93539 26.418C9.37186 25.5983 10.4253 24.2432 10.8654 22.649C11.0711 21.8055 11.0965 20.928 10.94 20.074C10.7834 19.22 10.4484 18.4087 9.95689 17.693C7.53939 13.8865 4.03789 13.477 1.63739 14.7615L1.63189 14.7655C1.45563 14.849 1.28996 14.9532 1.13839 15.076C0.723441 15.4346 0.44291 15.9237 0.342947 16.463C0.242985 17.0022 0.329547 17.5595 0.588391 18.043L4.57839 25.5825C4.80812 26.0198 5.17172 26.3722 5.61604 26.5881C6.06036 26.804 6.56209 26.8721 7.04789 26.7825L7.04639 26.782ZM8.69039 18.4965C9.07251 19.0373 9.3348 19.6534 9.45974 20.3038C9.58468 20.9541 9.56939 21.6235 9.41489 22.2675C9.2848 22.7556 9.07297 23.2181 8.78839 23.6355C8.76036 23.5642 8.72899 23.4943 8.69439 23.426L4.73989 15.805C4.70639 15.7405 4.66139 15.685 4.62239 15.624C5.96389 15.7415 7.44439 16.534 8.69039 18.4965ZM5.90339 24.8815L1.91589 17.347C1.81739 17.1688 1.78102 16.963 1.81253 16.7619C1.84404 16.5608 1.94163 16.3759 2.08989 16.2365C2.24725 16.1055 2.44518 16.0332 2.64989 16.032C2.73653 16.0321 2.82266 16.0452 2.90539 16.071C3.01265 16.1053 3.11205 16.1606 3.19787 16.2335C3.28368 16.3064 3.35421 16.3956 3.40539 16.496L7.35989 24.117C7.46134 24.3106 7.48172 24.5366 7.41655 24.7452C7.35138 24.9538 7.206 25.128 7.01239 25.2295C6.81878 25.3309 6.59281 25.3513 6.38417 25.2861C6.17554 25.221 6.00134 25.0756 5.89989 24.882L5.90339 24.8815Z"
      fill="#0097C4"/>
  </g>
  <defs>
    <clipPath id="clip0_1057_14293">
      <rect width="64" height="64" fill="white"/>
    </clipPath>
  </defs>
</svg>