<svg width="100%" height="100%" viewBox="0 0 64 64" fill="none" xmlns="http://www.w3.org/2000/svg">
  <path
    d="M24 41.177V31.5C24 29.57 22.43 28 20.5 28C19.961 28 19.456 28.133 19 28.351V22.5C19 20.57 17.43 19 15.5 19C14.961 19 14.456 19.133 14 19.351V16.5C14 14.57 12.43 13 10.5 13C8.875 13 7.516 14.12 7.125 15.624C6.49027 15.2184 5.75321 15.002 5 15C2.794 15 1 16.794 1 19V36C1 36.167 1.042 36.332 1.122 36.479L7.122 47.479C7.168 47.562 7.226 47.64 7.293 47.707L15.122 55.536C15.6824 56.0998 15.9979 56.862 16 57.657V62C16 62.2652 16.1054 62.5195 16.2929 62.7071C16.4804 62.8946 16.7348 63 17 63H29C29.2652 63 29.5196 62.8946 29.7071 62.7071C29.8946 62.5195 30 62.2652 30 62V49.577C30.0015 48.31 29.5206 47.0901 28.655 46.165L24 41.177ZM20.5 30C21.327 30 22 30.673 22 31.5V39.034L19 35.82V31.5C19 30.673 19.673 30 20.5 30ZM15.5 21C16.327 21 17 21.673 17 22.5V33.677L16.324 32.953C16.0429 32.6528 15.7033 32.4133 15.3262 32.2494C14.949 32.0855 14.5422 32.0006 14.131 32H14V22.5C14 21.673 14.673 21 15.5 21ZM9 16.5C9 15.673 9.673 15 10.5 15C11.327 15 12 15.673 12 16.5V32.778C11.556 33.178 11.225 33.703 11.082 34.304L9 31.654V19V16.5ZM28 61H18V57.657C18 56.322 17.48 55.066 16.536 54.122L8.809 46.395L3 35.745V19C3 17.897 3.897 17 5 17C6.103 17 7 17.897 7 19V32C7.00005 32.2241 7.07542 32.4418 7.214 32.618L18.214 46.618L19.786 45.383L13 36.745V35C13 34.449 13.449 34 14 34H14.131C14.407 34 14.673 34.116 14.862 34.317L27.194 47.529C27.713 48.087 28 48.814 28 49.577V61ZM59 15C58.218 15 57.493 15.234 56.875 15.624C56.484 14.12 55.125 13 53.5 13C51.57 13 50 14.57 50 16.5V19.351C49.5327 19.1229 49.02 19.0029 48.5 19C46.57 19 45 20.57 45 22.5V28.351C44.5327 28.1229 44.02 28.0029 43.5 28C41.57 28 40 29.57 40 31.5V41.177L35.345 46.165C34.4794 47.0901 33.9985 48.31 34 49.577V62C34 62.2652 34.1054 62.5195 34.2929 62.7071C34.4804 62.8946 34.7348 63 35 63H47C47.2652 63 47.5196 62.8946 47.7071 62.7071C47.8946 62.5195 48 62.2652 48 62V57.657C48 56.867 48.32 56.095 48.878 55.536L56.707 47.707C56.7743 47.6393 56.8318 47.5625 56.878 47.479L62.878 36.479C62.958 36.332 63 36.167 63 36V19C63 16.794 61.206 15 59 15ZM52 16.5C52 15.673 52.673 15 53.5 15C54.327 15 55 15.673 55 16.5V31.654L52.918 34.303C52.7737 33.713 52.4536 33.1808 52 32.777V22.5V16.5ZM47 22.5C47 21.673 47.673 21 48.5 21C49.327 21 50 21.673 50 22.5V32H49.869C49.04 32 48.241 32.348 47.676 32.953L47 33.678V31.5V22.5ZM42 31.5C42 30.673 42.673 30 43.5 30C44.327 30 45 30.673 45 31.5V35.82L42 39.034V31.5ZM61 35.745L55.191 46.394L47.464 54.121C46.9984 54.5844 46.6293 55.1355 46.378 55.7424C46.1267 56.3493 45.9982 57.0001 46 57.657V61H36V49.577C36 48.814 36.287 48.087 36.807 47.53L49.139 34.318C49.2324 34.2178 49.3454 34.1379 49.471 34.0832C49.5966 34.0285 49.732 34.0001 49.869 34H50C50.551 34 51 34.449 51 35V36.745L44.214 45.382L45.786 46.617L56.786 32.617C56.9248 32.4413 57.0002 32.2239 57 32V19C57 17.897 57.897 17 59 17C60.103 17 61 17.897 61 19V35.745ZM46.982 9.23796C46.9058 7.91857 46.5326 6.63343 45.8902 5.47848C45.2477 4.32352 44.3528 3.3286 43.272 2.56796C41.7163 1.47514 39.842 0.929043 37.9428 1.01518C36.0435 1.10131 34.2264 1.8148 32.776 3.04396L32 3.70196L31.223 3.04396C29.7726 1.8148 27.9555 1.10131 26.0562 1.01518C24.157 0.929043 22.2827 1.47514 20.727 2.56796C19.6462 3.3286 18.7513 4.32352 18.1088 5.47848C17.4664 6.63343 17.0932 7.91857 17.017 9.23796C16.9286 10.5614 17.1403 11.8877 17.6364 13.1179C18.1325 14.348 18.9002 15.4501 19.882 16.342L31.327 26.751C31.5111 26.9185 31.7511 27.0113 32 27.0113C32.2489 27.0113 32.4889 26.9185 32.673 26.751L44.118 16.342C45.0995 15.4499 45.8668 14.3477 46.3627 13.1176C46.8587 11.8875 47.0703 10.5613 46.982 9.23796ZM32 24.661L21.228 14.864C20.4687 14.173 19.8752 13.3196 19.4919 12.3672C19.1085 11.4149 18.9452 10.3883 19.014 9.36396C19.0722 8.34379 19.3601 7.34995 19.8562 6.45663C20.3523 5.56331 21.0438 4.7936 21.879 4.20496C23.0721 3.36583 24.5099 2.94648 25.967 3.01272C27.4241 3.07896 28.818 3.62704 29.93 4.57096L31.353 5.77696C31.726 6.09196 32.273 6.09196 32.646 5.77696L34.07 4.56996C35.1824 3.62683 36.5762 3.07927 38.033 3.01304C39.4899 2.94681 40.9276 3.36565 42.121 4.20396C42.9562 4.7926 43.6477 5.56231 44.1438 6.45563C44.6399 7.34895 44.9278 8.34279 44.986 9.36296C45.0551 10.3873 44.8918 11.414 44.5084 12.3663C44.1251 13.3187 43.5315 14.1722 42.772 14.863L32 24.661Z"
    fill="#0097C4"></path>
</svg>