<svg xmlns="http://www.w3.org/2000/svg" version="1.1" xmlns:xlink="http://www.w3.org/1999/xlink" xmlns:svgjs="http://svgjs.dev/svgjs" viewBox="0 0 1422 800"><defs><linearGradient x1="50%" y1="0%" x2="50%" y2="100%" id="oooscillate-grad"><stop stop-color="hsl(0, 0%, 100%)" stop-opacity="1" offset="0%"></stop><stop stop-color="hsl(0, 0%, 80%)" stop-opacity="1" offset="100%"></stop></linearGradient></defs><g stroke-width="1" stroke="url(#oooscillate-grad)" fill="none" stroke-linecap="round"><path d="M 0 2790 Q 355.5 235 711 400 Q 1066.5 565 1422 2790" opacity="0.09"></path><path d="M 0 2759 Q 355.5 235 711 400 Q 1066.5 565 1422 2759" opacity="0.75"></path><path d="M 0 2728 Q 355.5 235 711 400 Q 1066.5 565 1422 2728" opacity="0.81"></path><path d="M 0 2697 Q 355.5 235 711 400 Q 1066.5 565 1422 2697" opacity="0.67"></path><path d="M 0 2666 Q 355.5 235 711 400 Q 1066.5 565 1422 2666" opacity="0.86"></path><path d="M 0 2635 Q 355.5 235 711 400 Q 1066.5 565 1422 2635" opacity="0.87"></path><path d="M 0 2604 Q 355.5 235 711 400 Q 1066.5 565 1422 2604" opacity="0.90"></path><path d="M 0 2573 Q 355.5 235 711 400 Q 1066.5 565 1422 2573" opacity="0.51"></path><path d="M 0 2542 Q 355.5 235 711 400 Q 1066.5 565 1422 2542" opacity="0.27"></path><path d="M 0 2511 Q 355.5 235 711 400 Q 1066.5 565 1422 2511" opacity="0.35"></path><path d="M 0 2480 Q 355.5 235 711 400 Q 1066.5 565 1422 2480" opacity="0.92"></path><path d="M 0 2449 Q 355.5 235 711 400 Q 1066.5 565 1422 2449" opacity="0.93"></path><path d="M 0 2418 Q 355.5 235 711 400 Q 1066.5 565 1422 2418" opacity="0.84"></path><path d="M 0 2387 Q 355.5 235 711 400 Q 1066.5 565 1422 2387" opacity="0.92"></path><path d="M 0 2356 Q 355.5 235 711 400 Q 1066.5 565 1422 2356" opacity="0.74"></path><path d="M 0 2325 Q 355.5 235 711 400 Q 1066.5 565 1422 2325" opacity="0.40"></path><path d="M 0 2294 Q 355.5 235 711 400 Q 1066.5 565 1422 2294" opacity="0.92"></path><path d="M 0 2263 Q 355.5 235 711 400 Q 1066.5 565 1422 2263" opacity="0.56"></path><path d="M 0 2232 Q 355.5 235 711 400 Q 1066.5 565 1422 2232" opacity="0.92"></path><path d="M 0 2201 Q 355.5 235 711 400 Q 1066.5 565 1422 2201" opacity="0.77"></path><path d="M 0 2170 Q 355.5 235 711 400 Q 1066.5 565 1422 2170" opacity="0.94"></path><path d="M 0 2139 Q 355.5 235 711 400 Q 1066.5 565 1422 2139" opacity="0.16"></path><path d="M 0 2108 Q 355.5 235 711 400 Q 1066.5 565 1422 2108" opacity="0.60"></path><path d="M 0 2077 Q 355.5 235 711 400 Q 1066.5 565 1422 2077" opacity="0.82"></path><path d="M 0 2046 Q 355.5 235 711 400 Q 1066.5 565 1422 2046" opacity="0.70"></path><path d="M 0 2015 Q 355.5 235 711 400 Q 1066.5 565 1422 2015" opacity="0.52"></path><path d="M 0 1984 Q 355.5 235 711 400 Q 1066.5 565 1422 1984" opacity="0.14"></path><path d="M 0 1953 Q 355.5 235 711 400 Q 1066.5 565 1422 1953" opacity="0.37"></path><path d="M 0 1922 Q 355.5 235 711 400 Q 1066.5 565 1422 1922" opacity="0.50"></path><path d="M 0 1891 Q 355.5 235 711 400 Q 1066.5 565 1422 1891" opacity="0.89"></path><path d="M 0 1860 Q 355.5 235 711 400 Q 1066.5 565 1422 1860" opacity="0.93"></path><path d="M 0 1829 Q 355.5 235 711 400 Q 1066.5 565 1422 1829" opacity="0.99"></path><path d="M 0 1798 Q 355.5 235 711 400 Q 1066.5 565 1422 1798" opacity="0.95"></path><path d="M 0 1767 Q 355.5 235 711 400 Q 1066.5 565 1422 1767" opacity="0.48"></path><path d="M 0 1736 Q 355.5 235 711 400 Q 1066.5 565 1422 1736" opacity="0.09"></path><path d="M 0 1705 Q 355.5 235 711 400 Q 1066.5 565 1422 1705" opacity="0.67"></path><path d="M 0 1674 Q 355.5 235 711 400 Q 1066.5 565 1422 1674" opacity="0.93"></path><path d="M 0 1643 Q 355.5 235 711 400 Q 1066.5 565 1422 1643" opacity="0.83"></path><path d="M 0 1612 Q 355.5 235 711 400 Q 1066.5 565 1422 1612" opacity="0.38"></path><path d="M 0 1581 Q 355.5 235 711 400 Q 1066.5 565 1422 1581" opacity="0.62"></path><path d="M 0 1550 Q 355.5 235 711 400 Q 1066.5 565 1422 1550" opacity="0.63"></path><path d="M 0 1519 Q 355.5 235 711 400 Q 1066.5 565 1422 1519" opacity="0.66"></path><path d="M 0 1488 Q 355.5 235 711 400 Q 1066.5 565 1422 1488" opacity="0.96"></path><path d="M 0 1457 Q 355.5 235 711 400 Q 1066.5 565 1422 1457" opacity="0.17"></path><path d="M 0 1426 Q 355.5 235 711 400 Q 1066.5 565 1422 1426" opacity="0.91"></path><path d="M 0 1395 Q 355.5 235 711 400 Q 1066.5 565 1422 1395" opacity="0.65"></path><path d="M 0 1364 Q 355.5 235 711 400 Q 1066.5 565 1422 1364" opacity="0.54"></path><path d="M 0 1333 Q 355.5 235 711 400 Q 1066.5 565 1422 1333" opacity="0.63"></path><path d="M 0 1302 Q 355.5 235 711 400 Q 1066.5 565 1422 1302" opacity="0.69"></path><path d="M 0 1271 Q 355.5 235 711 400 Q 1066.5 565 1422 1271" opacity="0.51"></path><path d="M 0 1240 Q 355.5 235 711 400 Q 1066.5 565 1422 1240" opacity="0.21"></path><path d="M 0 1209 Q 355.5 235 711 400 Q 1066.5 565 1422 1209" opacity="0.28"></path><path d="M 0 1178 Q 355.5 235 711 400 Q 1066.5 565 1422 1178" opacity="0.28"></path><path d="M 0 1147 Q 355.5 235 711 400 Q 1066.5 565 1422 1147" opacity="0.07"></path><path d="M 0 1116 Q 355.5 235 711 400 Q 1066.5 565 1422 1116" opacity="0.53"></path><path d="M 0 1085 Q 355.5 235 711 400 Q 1066.5 565 1422 1085" opacity="0.52"></path><path d="M 0 1054 Q 355.5 235 711 400 Q 1066.5 565 1422 1054" opacity="0.87"></path><path d="M 0 1023 Q 355.5 235 711 400 Q 1066.5 565 1422 1023" opacity="0.47"></path><path d="M 0 992 Q 355.5 235 711 400 Q 1066.5 565 1422 992" opacity="0.92"></path><path d="M 0 961 Q 355.5 235 711 400 Q 1066.5 565 1422 961" opacity="0.91"></path><path d="M 0 930 Q 355.5 235 711 400 Q 1066.5 565 1422 930" opacity="0.69"></path><path d="M 0 899 Q 355.5 235 711 400 Q 1066.5 565 1422 899" opacity="0.59"></path><path d="M 0 868 Q 355.5 235 711 400 Q 1066.5 565 1422 868" opacity="0.84"></path><path d="M 0 837 Q 355.5 235 711 400 Q 1066.5 565 1422 837" opacity="0.21"></path><path d="M 0 806 Q 355.5 235 711 400 Q 1066.5 565 1422 806" opacity="0.36"></path><path d="M 0 775 Q 355.5 235 711 400 Q 1066.5 565 1422 775" opacity="0.83"></path><path d="M 0 744 Q 355.5 235 711 400 Q 1066.5 565 1422 744" opacity="0.51"></path><path d="M 0 713 Q 355.5 235 711 400 Q 1066.5 565 1422 713" opacity="0.78"></path><path d="M 0 682 Q 355.5 235 711 400 Q 1066.5 565 1422 682" opacity="0.56"></path><path d="M 0 651 Q 355.5 235 711 400 Q 1066.5 565 1422 651" opacity="0.83"></path><path d="M 0 620 Q 355.5 235 711 400 Q 1066.5 565 1422 620" opacity="0.08"></path><path d="M 0 589 Q 355.5 235 711 400 Q 1066.5 565 1422 589" opacity="0.08"></path><path d="M 0 558 Q 355.5 235 711 400 Q 1066.5 565 1422 558" opacity="0.40"></path><path d="M 0 527 Q 355.5 235 711 400 Q 1066.5 565 1422 527" opacity="0.15"></path><path d="M 0 496 Q 355.5 235 711 400 Q 1066.5 565 1422 496" opacity="0.63"></path><path d="M 0 465 Q 355.5 235 711 400 Q 1066.5 565 1422 465" opacity="0.72"></path><path d="M 0 434 Q 355.5 235 711 400 Q 1066.5 565 1422 434" opacity="0.40"></path><path d="M 0 403 Q 355.5 235 711 400 Q 1066.5 565 1422 403" opacity="0.89"></path><path d="M 0 372 Q 355.5 235 711 400 Q 1066.5 565 1422 372" opacity="0.55"></path><path d="M 0 341 Q 355.5 235 711 400 Q 1066.5 565 1422 341" opacity="0.62"></path><path d="M 0 310 Q 355.5 235 711 400 Q 1066.5 565 1422 310" opacity="0.84"></path><path d="M 0 279 Q 355.5 235 711 400 Q 1066.5 565 1422 279" opacity="0.51"></path><path d="M 0 248 Q 355.5 235 711 400 Q 1066.5 565 1422 248" opacity="0.86"></path><path d="M 0 217 Q 355.5 235 711 400 Q 1066.5 565 1422 217" opacity="0.87"></path><path d="M 0 186 Q 355.5 235 711 400 Q 1066.5 565 1422 186" opacity="0.64"></path><path d="M 0 155 Q 355.5 235 711 400 Q 1066.5 565 1422 155" opacity="0.81"></path><path d="M 0 124 Q 355.5 235 711 400 Q 1066.5 565 1422 124" opacity="0.69"></path><path d="M 0 93 Q 355.5 235 711 400 Q 1066.5 565 1422 93" opacity="0.09"></path><path d="M 0 62 Q 355.5 235 711 400 Q 1066.5 565 1422 62" opacity="0.62"></path></g></svg>