<svg xmlns="http://www.w3.org/2000/svg" version="1.1" xmlns:xlink="http://www.w3.org/1999/xlink" xmlns:svgjs="http://svgjs.dev/svgjs" width="420" height="560" preserveAspectRatio="none" viewBox="0 0 420 560">
    <g mask="url(&quot;#SvgjsMask1022&quot;)" fill="none">
        <path d="M-19.98 380.39L-19.98 380.39" stroke="rgba(202, 202, 202, 1)" stroke-width="1.5"></path>
        <path d="M-19.98 380.39L21.84 374.27" stroke="rgba(202, 202, 202, 1)" stroke-width="1.5"></path>
        <path d="M-19.98 380.39L-27.95 470.68" stroke="rgba(202, 202, 202, 1)" stroke-width="1.5"></path>
        <path d="M-19.98 380.39L38.78 466.21" stroke="rgba(202, 202, 202, 1)" stroke-width="1.5"></path>
        <path d="M-19.98 380.39L-44.59 507.68" stroke="rgba(202, 202, 202, 1)" stroke-width="1.5"></path>
        <path d="M-19.98 380.39L91.89 446.3" stroke="rgba(202, 202, 202, 1)" stroke-width="1.5"></path>
        <path d="M-19.98 380.39L110.4 368.8" stroke="rgba(202, 202, 202, 1)" stroke-width="1.5"></path>
        <path d="M-27.95 470.68L-27.95 470.68" stroke="rgba(202, 202, 202, 1)" stroke-width="1.5"></path>
        <path d="M-27.95 470.68L-44.59 507.68" stroke="rgba(202, 202, 202, 1)" stroke-width="1.5"></path>
        <path d="M-44.59 507.68L-44.59 507.68" stroke="rgba(202, 202, 202, 1)" stroke-width="1.5"></path>
        <path d="M-44.59 507.68L29.85 510.78" stroke="rgba(202, 202, 202, 1)" stroke-width="1.5"></path>
        <path d="M-44.59 507.68L38.78 466.21" stroke="rgba(202, 202, 202, 1)" stroke-width="1.5"></path>
        <path d="M-44.59 507.68L17.58 591.98" stroke="rgba(202, 202, 202, 1)" stroke-width="1.5"></path>
        <path d="M21.84 374.27L21.84 374.27" stroke="rgba(202, 202, 202, 1)" stroke-width="1.5"></path>
        <path d="M21.84 374.27L110.4 368.8" stroke="rgba(202, 202, 202, 1)" stroke-width="1.5"></path>
        <path d="M21.84 374.27L38.78 466.21" stroke="rgba(202, 202, 202, 1)" stroke-width="1.5"></path>
        <path d="M21.84 374.27L91.89 446.3" stroke="rgba(202, 202, 202, 1)" stroke-width="1.5"></path>
        <path d="M21.84 374.27L103.93 316.3" stroke="rgba(202, 202, 202, 1)" stroke-width="1.5"></path>
        <path d="M38.78 466.21L38.78 466.21" stroke="rgba(202, 202, 202, 1)" stroke-width="1.5"></path>
        <path d="M38.78 466.21L29.85 510.78" stroke="rgba(202, 202, 202, 1)" stroke-width="1.5"></path>
        <path d="M38.78 466.21L91.89 446.3" stroke="rgba(202, 202, 202, 1)" stroke-width="1.5"></path>
        <path d="M38.78 466.21L-27.95 470.68" stroke="rgba(202, 202, 202, 1)" stroke-width="1.5"></path>
        <path d="M29.85 510.78L29.85 510.78" stroke="rgba(202, 202, 202, 1)" stroke-width="1.5"></path>
        <path d="M29.85 510.78L-27.95 470.68" stroke="rgba(202, 202, 202, 1)" stroke-width="1.5"></path>
        <path d="M17.58 591.98L17.58 591.98" stroke="rgba(202, 202, 202, 1)" stroke-width="1.5"></path>
        <path d="M17.58 591.98L29.85 510.78" stroke="rgba(202, 202, 202, 1)" stroke-width="1.5"></path>
        <path d="M17.58 591.98L111.74 595.74" stroke="rgba(202, 202, 202, 1)" stroke-width="1.5"></path>
        <path d="M103.93 316.3L103.93 316.3" stroke="rgba(202, 202, 202, 1)" stroke-width="1.5"></path>
        <path d="M103.93 316.3L110.4 368.8" stroke="rgba(202, 202, 202, 1)" stroke-width="1.5"></path>
        <path d="M103.93 316.3L177.23 298.83" stroke="rgba(202, 202, 202, 1)" stroke-width="1.5"></path>
        <path d="M110.4 368.8L110.4 368.8" stroke="rgba(202, 202, 202, 1)" stroke-width="1.5"></path>
        <path d="M110.4 368.8L169.94 385.81" stroke="rgba(202, 202, 202, 1)" stroke-width="1.5"></path>
        <path d="M110.4 368.8L91.89 446.3" stroke="rgba(202, 202, 202, 1)" stroke-width="1.5"></path>
        <path d="M110.4 368.8L177.23 298.83" stroke="rgba(202, 202, 202, 1)" stroke-width="1.5"></path>
        <path d="M110.4 368.8L187.25 458.79" stroke="rgba(202, 202, 202, 1)" stroke-width="1.5"></path>
        <path d="M91.89 446.3L91.89 446.3" stroke="rgba(202, 202, 202, 1)" stroke-width="1.5"></path>
        <path d="M91.89 446.3L29.85 510.78" stroke="rgba(202, 202, 202, 1)" stroke-width="1.5"></path>
        <path d="M112.7 539.8L112.7 539.8" stroke="rgba(202, 202, 202, 1)" stroke-width="1.5"></path>
        <path d="M112.7 539.8L166.63 528.66" stroke="rgba(202, 202, 202, 1)" stroke-width="1.5"></path>
        <path d="M112.7 539.8L111.74 595.74" stroke="rgba(202, 202, 202, 1)" stroke-width="1.5"></path>
        <path d="M112.7 539.8L29.85 510.78" stroke="rgba(202, 202, 202, 1)" stroke-width="1.5"></path>
        <path d="M112.7 539.8L91.89 446.3" stroke="rgba(202, 202, 202, 1)" stroke-width="1.5"></path>
        <path d="M112.7 539.8L177.6 612.1" stroke="rgba(202, 202, 202, 1)" stroke-width="1.5"></path>
        <path d="M111.74 595.74L111.74 595.74" stroke="rgba(202, 202, 202, 1)" stroke-width="1.5"></path>
        <path d="M111.74 595.74L177.6 612.1" stroke="rgba(202, 202, 202, 1)" stroke-width="1.5"></path>
        <path d="M111.74 595.74L166.63 528.66" stroke="rgba(202, 202, 202, 1)" stroke-width="1.5"></path>
        <path d="M177.23 298.83L177.23 298.83" stroke="rgba(202, 202, 202, 1)" stroke-width="1.5"></path>
        <path d="M177.23 298.83L237.87 256.93" stroke="rgba(202, 202, 202, 1)" stroke-width="1.5"></path>
        <path d="M177.23 298.83L259.69 311.35" stroke="rgba(202, 202, 202, 1)" stroke-width="1.5"></path>
        <path d="M177.23 298.83L169.94 385.81" stroke="rgba(202, 202, 202, 1)" stroke-width="1.5"></path>
        <path d="M169.94 385.81L169.94 385.81" stroke="rgba(202, 202, 202, 1)" stroke-width="1.5"></path>
        <path d="M169.94 385.81L187.25 458.79" stroke="rgba(202, 202, 202, 1)" stroke-width="1.5"></path>
        <path d="M187.25 458.79L187.25 458.79" stroke="rgba(202, 202, 202, 1)" stroke-width="1.5"></path>
        <path d="M187.25 458.79L248.83 451.39" stroke="rgba(202, 202, 202, 1)" stroke-width="1.5"></path>
        <path d="M166.63 528.66L166.63 528.66" stroke="rgba(202, 202, 202, 1)" stroke-width="1.5"></path>
        <path d="M166.63 528.66L187.25 458.79" stroke="rgba(202, 202, 202, 1)" stroke-width="1.5"></path>
        <path d="M166.63 528.66L243.8 532.71" stroke="rgba(202, 202, 202, 1)" stroke-width="1.5"></path>
        <path d="M166.63 528.66L177.6 612.1" stroke="rgba(202, 202, 202, 1)" stroke-width="1.5"></path>
        <path d="M177.6 612.1L177.6 612.1" stroke="rgba(202, 202, 202, 1)" stroke-width="1.5"></path>
        <path d="M177.6 612.1L249.75 591.7" stroke="rgba(202, 202, 202, 1)" stroke-width="1.5"></path>
        <path d="M254.95 -28.72L254.95 -28.72" stroke="rgba(202, 202, 202, 1)" stroke-width="1.5"></path>
        <path d="M254.95 -28.72L309.42 -36.66" stroke="rgba(202, 202, 202, 1)" stroke-width="1.5"></path>
        <path d="M254.95 -28.72L314.89 32.49" stroke="rgba(202, 202, 202, 1)" stroke-width="1.5"></path>
        <path d="M254.95 -28.72L384.78 -32.35" stroke="rgba(202, 202, 202, 1)" stroke-width="1.5"></path>
        <path d="M252.87 109.15L252.87 109.15" stroke="rgba(202, 202, 202, 1)" stroke-width="1.5"></path>
        <path d="M252.87 109.15L310.32 119.72" stroke="rgba(202, 202, 202, 1)" stroke-width="1.5"></path>
        <path d="M252.87 109.15L235.3 185.31" stroke="rgba(202, 202, 202, 1)" stroke-width="1.5"></path>
        <path d="M235.3 185.31L235.3 185.31" stroke="rgba(202, 202, 202, 1)" stroke-width="1.5"></path>
        <path d="M235.3 185.31L237.87 256.93" stroke="rgba(202, 202, 202, 1)" stroke-width="1.5"></path>
        <path d="M235.3 185.31L309.46 179.66" stroke="rgba(202, 202, 202, 1)" stroke-width="1.5"></path>
        <path d="M235.3 185.31L324.74 229" stroke="rgba(202, 202, 202, 1)" stroke-width="1.5"></path>
        <path d="M235.3 185.31L310.32 119.72" stroke="rgba(202, 202, 202, 1)" stroke-width="1.5"></path>
        <path d="M237.87 256.93L237.87 256.93" stroke="rgba(202, 202, 202, 1)" stroke-width="1.5"></path>
        <path d="M237.87 256.93L259.69 311.35" stroke="rgba(202, 202, 202, 1)" stroke-width="1.5"></path>
        <path d="M237.87 256.93L324.74 229" stroke="rgba(202, 202, 202, 1)" stroke-width="1.5"></path>
        <path d="M237.87 256.93L320.98 321.64" stroke="rgba(202, 202, 202, 1)" stroke-width="1.5"></path>
        <path d="M259.69 311.35L259.69 311.35" stroke="rgba(202, 202, 202, 1)" stroke-width="1.5"></path>
        <path d="M259.69 311.35L249.11 370.08" stroke="rgba(202, 202, 202, 1)" stroke-width="1.5"></path>
        <path d="M259.69 311.35L320.98 321.64" stroke="rgba(202, 202, 202, 1)" stroke-width="1.5"></path>
        <path d="M259.69 311.35L324.74 229" stroke="rgba(202, 202, 202, 1)" stroke-width="1.5"></path>
        <path d="M249.11 370.08L249.11 370.08" stroke="rgba(202, 202, 202, 1)" stroke-width="1.5"></path>
        <path d="M249.11 370.08L169.94 385.81" stroke="rgba(202, 202, 202, 1)" stroke-width="1.5"></path>
        <path d="M249.11 370.08L248.83 451.39" stroke="rgba(202, 202, 202, 1)" stroke-width="1.5"></path>
        <path d="M248.83 451.39L248.83 451.39" stroke="rgba(202, 202, 202, 1)" stroke-width="1.5"></path>
        <path d="M248.83 451.39L306.85 466.63" stroke="rgba(202, 202, 202, 1)" stroke-width="1.5"></path>
        <path d="M243.8 532.71L243.8 532.71" stroke="rgba(202, 202, 202, 1)" stroke-width="1.5"></path>
        <path d="M243.8 532.71L249.75 591.7" stroke="rgba(202, 202, 202, 1)" stroke-width="1.5"></path>
        <path d="M243.8 532.71L308.64 519.84" stroke="rgba(202, 202, 202, 1)" stroke-width="1.5"></path>
        <path d="M243.8 532.71L301.14 586.94" stroke="rgba(202, 202, 202, 1)" stroke-width="1.5"></path>
        <path d="M243.8 532.71L248.83 451.39" stroke="rgba(202, 202, 202, 1)" stroke-width="1.5"></path>
        <path d="M249.75 591.7L249.75 591.7" stroke="rgba(202, 202, 202, 1)" stroke-width="1.5"></path>
        <path d="M249.75 591.7L301.14 586.94" stroke="rgba(202, 202, 202, 1)" stroke-width="1.5"></path>
        <path d="M249.75 591.7L308.64 519.84" stroke="rgba(202, 202, 202, 1)" stroke-width="1.5"></path>
        <path d="M309.42 -36.66L309.42 -36.66" stroke="rgba(202, 202, 202, 1)" stroke-width="1.5"></path>
        <path d="M309.42 -36.66L314.89 32.49" stroke="rgba(202, 202, 202, 1)" stroke-width="1.5"></path>
        <path d="M309.42 -36.66L384.78 -32.35" stroke="rgba(202, 202, 202, 1)" stroke-width="1.5"></path>
        <path d="M309.42 -36.66L402.24 29.68" stroke="rgba(202, 202, 202, 1)" stroke-width="1.5"></path>
        <path d="M309.42 -36.66L310.32 119.72" stroke="rgba(202, 202, 202, 1)" stroke-width="1.5"></path>
        <path d="M314.89 32.49L314.89 32.49" stroke="rgba(202, 202, 202, 1)" stroke-width="1.5"></path>
        <path d="M314.89 32.49L310.32 119.72" stroke="rgba(202, 202, 202, 1)" stroke-width="1.5"></path>
        <path d="M314.89 32.49L402.24 29.68" stroke="rgba(202, 202, 202, 1)" stroke-width="1.5"></path>
        <path d="M314.89 32.49L384.78 -32.35" stroke="rgba(202, 202, 202, 1)" stroke-width="1.5"></path>
        <path d="M314.89 32.49L252.87 109.15" stroke="rgba(202, 202, 202, 1)" stroke-width="1.5"></path>
        <path d="M310.32 119.72L310.32 119.72" stroke="rgba(202, 202, 202, 1)" stroke-width="1.5"></path>
        <path d="M310.32 119.72L309.46 179.66" stroke="rgba(202, 202, 202, 1)" stroke-width="1.5"></path>
        <path d="M310.32 119.72L398.26 120.38" stroke="rgba(202, 202, 202, 1)" stroke-width="1.5"></path>
        <path d="M310.32 119.72L393.94 157.91" stroke="rgba(202, 202, 202, 1)" stroke-width="1.5"></path>
        <path d="M309.46 179.66L309.46 179.66" stroke="rgba(202, 202, 202, 1)" stroke-width="1.5"></path>
        <path d="M309.46 179.66L324.74 229" stroke="rgba(202, 202, 202, 1)" stroke-width="1.5"></path>
        <path d="M309.46 179.66L393.94 157.91" stroke="rgba(202, 202, 202, 1)" stroke-width="1.5"></path>
        <path d="M324.74 229L324.74 229" stroke="rgba(202, 202, 202, 1)" stroke-width="1.5"></path>
        <path d="M324.74 229L379.61 235.05" stroke="rgba(202, 202, 202, 1)" stroke-width="1.5"></path>
        <path d="M320.98 321.64L320.98 321.64" stroke="rgba(202, 202, 202, 1)" stroke-width="1.5"></path>
        <path d="M320.98 321.64L378.76 326.86" stroke="rgba(202, 202, 202, 1)" stroke-width="1.5"></path>
        <path d="M306.85 466.63L306.85 466.63" stroke="rgba(202, 202, 202, 1)" stroke-width="1.5"></path>
        <path d="M306.85 466.63L308.64 519.84" stroke="rgba(202, 202, 202, 1)" stroke-width="1.5"></path>
        <path d="M306.85 466.63L391.71 467.21" stroke="rgba(202, 202, 202, 1)" stroke-width="1.5"></path>
        <path d="M306.85 466.63L243.8 532.71" stroke="rgba(202, 202, 202, 1)" stroke-width="1.5"></path>
        <path d="M306.85 466.63L384.33 531.36" stroke="rgba(202, 202, 202, 1)" stroke-width="1.5"></path>
        <path d="M306.85 466.63L249.11 370.08" stroke="rgba(202, 202, 202, 1)" stroke-width="1.5"></path>
        <path d="M308.64 519.84L308.64 519.84" stroke="rgba(202, 202, 202, 1)" stroke-width="1.5"></path>
        <path d="M301.14 586.94L301.14 586.94" stroke="rgba(202, 202, 202, 1)" stroke-width="1.5"></path>
        <path d="M301.14 586.94L308.64 519.84" stroke="rgba(202, 202, 202, 1)" stroke-width="1.5"></path>
        <path d="M301.14 586.94L377.85 591.18" stroke="rgba(202, 202, 202, 1)" stroke-width="1.5"></path>
        <path d="M384.78 -32.35L384.78 -32.35" stroke="rgba(202, 202, 202, 1)" stroke-width="1.5"></path>
        <path d="M384.78 -32.35L402.24 29.68" stroke="rgba(202, 202, 202, 1)" stroke-width="1.5"></path>
        <path d="M384.78 -32.35L465.87 -49.75" stroke="rgba(202, 202, 202, 1)" stroke-width="1.5"></path>
        <path d="M384.78 -32.35L471.65 30.68" stroke="rgba(202, 202, 202, 1)" stroke-width="1.5"></path>
        <path d="M402.24 29.68L402.24 29.68" stroke="rgba(202, 202, 202, 1)" stroke-width="1.5"></path>
        <path d="M402.24 29.68L471.65 30.68" stroke="rgba(202, 202, 202, 1)" stroke-width="1.5"></path>
        <path d="M402.24 29.68L398.26 120.38" stroke="rgba(202, 202, 202, 1)" stroke-width="1.5"></path>
        <path d="M398.26 120.38L398.26 120.38" stroke="rgba(202, 202, 202, 1)" stroke-width="1.5"></path>
        <path d="M398.26 120.38L393.94 157.91" stroke="rgba(202, 202, 202, 1)" stroke-width="1.5"></path>
        <path d="M398.26 120.38L455.49 105" stroke="rgba(202, 202, 202, 1)" stroke-width="1.5"></path>
        <path d="M398.26 120.38L444.08 183.46" stroke="rgba(202, 202, 202, 1)" stroke-width="1.5"></path>
        <path d="M393.94 157.91L393.94 157.91" stroke="rgba(202, 202, 202, 1)" stroke-width="1.5"></path>
        <path d="M393.94 157.91L444.08 183.46" stroke="rgba(202, 202, 202, 1)" stroke-width="1.5"></path>
        <path d="M393.94 157.91L379.61 235.05" stroke="rgba(202, 202, 202, 1)" stroke-width="1.5"></path>
        <path d="M393.94 157.91L455.49 105" stroke="rgba(202, 202, 202, 1)" stroke-width="1.5"></path>
        <path d="M379.61 235.05L379.61 235.05" stroke="rgba(202, 202, 202, 1)" stroke-width="1.5"></path>
        <path d="M379.61 235.05L441.6 244.58" stroke="rgba(202, 202, 202, 1)" stroke-width="1.5"></path>
        <path d="M378.76 326.86L378.76 326.86" stroke="rgba(202, 202, 202, 1)" stroke-width="1.5"></path>
        <path d="M378.76 326.86L385.99 380.33" stroke="rgba(202, 202, 202, 1)" stroke-width="1.5"></path>
        <path d="M378.76 326.86L449.65 309.68" stroke="rgba(202, 202, 202, 1)" stroke-width="1.5"></path>
        <path d="M378.76 326.86L379.61 235.05" stroke="rgba(202, 202, 202, 1)" stroke-width="1.5"></path>
        <path d="M378.76 326.86L442.12 398.69" stroke="rgba(202, 202, 202, 1)" stroke-width="1.5"></path>
        <path d="M385.99 380.33L385.99 380.33" stroke="rgba(202, 202, 202, 1)" stroke-width="1.5"></path>
        <path d="M385.99 380.33L442.12 398.69" stroke="rgba(202, 202, 202, 1)" stroke-width="1.5"></path>
        <path d="M391.71 467.21L391.71 467.21" stroke="rgba(202, 202, 202, 1)" stroke-width="1.5"></path>
        <path d="M391.71 467.21L384.33 531.36" stroke="rgba(202, 202, 202, 1)" stroke-width="1.5"></path>
        <path d="M391.71 467.21L470.62 462.33" stroke="rgba(202, 202, 202, 1)" stroke-width="1.5"></path>
        <path d="M391.71 467.21L442.12 398.69" stroke="rgba(202, 202, 202, 1)" stroke-width="1.5"></path>
        <path d="M384.33 531.36L384.33 531.36" stroke="rgba(202, 202, 202, 1)" stroke-width="1.5"></path>
        <path d="M384.33 531.36L377.85 591.18" stroke="rgba(202, 202, 202, 1)" stroke-width="1.5"></path>
        <path d="M377.85 591.18L377.85 591.18" stroke="rgba(202, 202, 202, 1)" stroke-width="1.5"></path>
        <path d="M377.85 591.18L466.17 608.27" stroke="rgba(202, 202, 202, 1)" stroke-width="1.5"></path>
        <path d="M465.87 -49.75L465.87 -49.75" stroke="rgba(202, 202, 202, 1)" stroke-width="1.5"></path>
        <path d="M465.87 -49.75L471.65 30.68" stroke="rgba(202, 202, 202, 1)" stroke-width="1.5"></path>
        <path d="M465.87 -49.75L402.24 29.68" stroke="rgba(202, 202, 202, 1)" stroke-width="1.5"></path>
        <path d="M471.65 30.68L471.65 30.68" stroke="rgba(202, 202, 202, 1)" stroke-width="1.5"></path>
        <path d="M471.65 30.68L455.49 105" stroke="rgba(202, 202, 202, 1)" stroke-width="1.5"></path>
        <path d="M471.65 30.68L398.26 120.38" stroke="rgba(202, 202, 202, 1)" stroke-width="1.5"></path>
        <path d="M471.65 30.68L393.94 157.91" stroke="rgba(202, 202, 202, 1)" stroke-width="1.5"></path>
        <path d="M455.49 105L455.49 105" stroke="rgba(202, 202, 202, 1)" stroke-width="1.5"></path>
        <path d="M455.49 105L444.08 183.46" stroke="rgba(202, 202, 202, 1)" stroke-width="1.5"></path>
        <path d="M444.08 183.46L444.08 183.46" stroke="rgba(202, 202, 202, 1)" stroke-width="1.5"></path>
        <path d="M444.08 183.46L441.6 244.58" stroke="rgba(202, 202, 202, 1)" stroke-width="1.5"></path>
        <path d="M441.6 244.58L441.6 244.58" stroke="rgba(202, 202, 202, 1)" stroke-width="1.5"></path>
        <path d="M449.65 309.68L449.65 309.68" stroke="rgba(202, 202, 202, 1)" stroke-width="1.5"></path>
        <path d="M449.65 309.68L441.6 244.58" stroke="rgba(202, 202, 202, 1)" stroke-width="1.5"></path>
        <path d="M449.65 309.68L442.12 398.69" stroke="rgba(202, 202, 202, 1)" stroke-width="1.5"></path>
        <path d="M449.65 309.68L385.99 380.33" stroke="rgba(202, 202, 202, 1)" stroke-width="1.5"></path>
        <path d="M442.12 398.69L442.12 398.69" stroke="rgba(202, 202, 202, 1)" stroke-width="1.5"></path>
        <path d="M442.12 398.69L470.62 462.33" stroke="rgba(202, 202, 202, 1)" stroke-width="1.5"></path>
        <path d="M470.62 462.33L470.62 462.33" stroke="rgba(202, 202, 202, 1)" stroke-width="1.5"></path>
        <path d="M470.62 462.33L462.54 538.5" stroke="rgba(202, 202, 202, 1)" stroke-width="1.5"></path>
        <path d="M470.62 462.33L384.33 531.36" stroke="rgba(202, 202, 202, 1)" stroke-width="1.5"></path>
        <path d="M470.62 462.33L385.99 380.33" stroke="rgba(202, 202, 202, 1)" stroke-width="1.5"></path>
        <path d="M470.62 462.33L466.17 608.27" stroke="rgba(202, 202, 202, 1)" stroke-width="1.5"></path>
        <path d="M462.54 538.5L462.54 538.5" stroke="rgba(202, 202, 202, 1)" stroke-width="1.5"></path>
        <path d="M462.54 538.5L466.17 608.27" stroke="rgba(202, 202, 202, 1)" stroke-width="1.5"></path>
        <path d="M466.17 608.27L466.17 608.27" stroke="rgba(202, 202, 202, 1)" stroke-width="1.5"></path>
        <circle r="5" cx="-19.98" cy="380.39" fill="rgba(202, 202, 202, 1)"></circle>
        <circle r="5" cx="-27.95" cy="470.68" fill="rgba(202, 202, 202, 1)"></circle>
        <circle r="5" cx="-44.59" cy="507.68" fill="rgba(202, 202, 202, 1)"></circle>
        <circle r="5" cx="21.84" cy="374.27" fill="rgba(202, 202, 202, 1)"></circle>
        <circle r="5" cx="38.78" cy="466.21" fill="rgba(202, 202, 202, 1)"></circle>
        <circle r="5" cx="29.85" cy="510.78" fill="rgba(202, 202, 202, 1)"></circle>
        <circle r="5" cx="17.58" cy="591.98" fill="rgba(202, 202, 202, 1)"></circle>
        <circle r="5" cx="103.93" cy="316.3" fill="rgba(202, 202, 202, 1)"></circle>
        <circle r="5" cx="110.4" cy="368.8" fill="rgba(202, 202, 202, 1)"></circle>
        <circle r="5" cx="91.89" cy="446.3" fill="rgba(202, 202, 202, 1)"></circle>
        <circle r="5" cx="112.7" cy="539.8" fill="rgba(202, 202, 202, 1)"></circle>
        <circle r="5" cx="111.74" cy="595.74" fill="rgba(202, 202, 202, 1)"></circle>
        <circle r="5" cx="177.23" cy="298.83" fill="rgba(202, 202, 202, 1)"></circle>
        <circle r="5" cx="169.94" cy="385.81" fill="rgba(202, 202, 202, 1)"></circle>
        <circle r="5" cx="187.25" cy="458.79" fill="rgba(202, 202, 202, 1)"></circle>
        <circle r="5" cx="166.63" cy="528.66" fill="rgba(202, 202, 202, 1)"></circle>
        <circle r="5" cx="177.6" cy="612.1" fill="rgba(202, 202, 202, 1)"></circle>
        <circle r="5" cx="254.95" cy="-28.72" fill="rgba(202, 202, 202, 1)"></circle>
        <circle r="5" cx="252.87" cy="109.15" fill="rgba(202, 202, 202, 1)"></circle>
        <circle r="5" cx="235.3" cy="185.31" fill="rgba(202, 202, 202, 1)"></circle>
        <circle r="5" cx="237.87" cy="256.93" fill="rgba(202, 202, 202, 1)"></circle>
        <circle r="5" cx="259.69" cy="311.35" fill="rgba(202, 202, 202, 1)"></circle>
        <circle r="5" cx="249.11" cy="370.08" fill="rgba(202, 202, 202, 1)"></circle>
        <circle r="5" cx="248.83" cy="451.39" fill="rgba(202, 202, 202, 1)"></circle>
        <circle r="5" cx="243.8" cy="532.71" fill="rgba(202, 202, 202, 1)"></circle>
        <circle r="5" cx="249.75" cy="591.7" fill="rgba(202, 202, 202, 1)"></circle>
        <circle r="5" cx="309.42" cy="-36.66" fill="rgba(202, 202, 202, 1)"></circle>
        <circle r="5" cx="314.89" cy="32.49" fill="rgba(202, 202, 202, 1)"></circle>
        <circle r="5" cx="310.32" cy="119.72" fill="rgba(202, 202, 202, 1)"></circle>
        <circle r="5" cx="309.46" cy="179.66" fill="rgba(202, 202, 202, 1)"></circle>
        <circle r="5" cx="324.74" cy="229" fill="rgba(202, 202, 202, 1)"></circle>
        <circle r="5" cx="320.98" cy="321.64" fill="rgba(202, 202, 202, 1)"></circle>
        <circle r="5" cx="306.85" cy="466.63" fill="rgba(202, 202, 202, 1)"></circle>
        <circle r="5" cx="308.64" cy="519.84" fill="rgba(202, 202, 202, 1)"></circle>
        <circle r="5" cx="301.14" cy="586.94" fill="rgba(202, 202, 202, 1)"></circle>
        <circle r="5" cx="384.78" cy="-32.35" fill="rgba(202, 202, 202, 1)"></circle>
        <circle r="5" cx="402.24" cy="29.68" fill="rgba(202, 202, 202, 1)"></circle>
        <circle r="5" cx="398.26" cy="120.38" fill="rgba(202, 202, 202, 1)"></circle>
        <circle r="5" cx="393.94" cy="157.91" fill="rgba(202, 202, 202, 1)"></circle>
        <circle r="5" cx="379.61" cy="235.05" fill="rgba(202, 202, 202, 1)"></circle>
        <circle r="5" cx="378.76" cy="326.86" fill="rgba(202, 202, 202, 1)"></circle>
        <circle r="5" cx="385.99" cy="380.33" fill="rgba(202, 202, 202, 1)"></circle>
        <circle r="5" cx="391.71" cy="467.21" fill="rgba(202, 202, 202, 1)"></circle>
        <circle r="5" cx="384.33" cy="531.36" fill="rgba(202, 202, 202, 1)"></circle>
        <circle r="5" cx="377.85" cy="591.18" fill="rgba(202, 202, 202, 1)"></circle>
        <circle r="5" cx="465.87" cy="-49.75" fill="rgba(202, 202, 202, 1)"></circle>
        <circle r="5" cx="471.65" cy="30.68" fill="rgba(202, 202, 202, 1)"></circle>
        <circle r="5" cx="455.49" cy="105" fill="rgba(202, 202, 202, 1)"></circle>
        <circle r="5" cx="444.08" cy="183.46" fill="rgba(202, 202, 202, 1)"></circle>
        <circle r="5" cx="441.6" cy="244.58" fill="rgba(202, 202, 202, 1)"></circle>
        <circle r="5" cx="449.65" cy="309.68" fill="rgba(202, 202, 202, 1)"></circle>
        <circle r="5" cx="442.12" cy="398.69" fill="rgba(202, 202, 202, 1)"></circle>
        <circle r="5" cx="470.62" cy="462.33" fill="rgba(202, 202, 202, 1)"></circle>
        <circle r="5" cx="462.54" cy="538.5" fill="rgba(202, 202, 202, 1)"></circle>
        <circle r="5" cx="466.17" cy="608.27" fill="rgba(202, 202, 202, 1)"></circle>
        <path d="M51.7 540.2L51.7 540.2" stroke="hsl(240, 100%, 100%)" stroke-width="1.5"></path>
        <path d="M51.7 540.2L117.31 510.87" stroke="hsl(240, 100%, 100%)" stroke-width="1.5"></path>
        <path d="M51.7 540.2L27.63 472.1" stroke="hsl(240, 100%, 100%)" stroke-width="1.5"></path>
        <path d="M51.7 540.2L22.61 607.14" stroke="hsl(240, 100%, 100%)" stroke-width="1.5"></path>
        <path d="M51.7 540.2L120.2 580.81" stroke="hsl(240, 100%, 100%)" stroke-width="1.5"></path>
        <path d="M51.7 540.2L-33.71 527.71" stroke="hsl(240, 100%, 100%)" stroke-width="1.5"></path>
        <path d="M51.7 540.2L-19.9 589.1" stroke="hsl(240, 100%, 100%)" stroke-width="1.5"></path>
        <path d="M108.71 442.18L108.71 442.18" stroke="hsl(240, 100%, 100%)" stroke-width="1.5"></path>
        <path d="M108.71 442.18L173.8 448.53" stroke="hsl(240, 100%, 100%)" stroke-width="1.5"></path>
        <path d="M108.71 442.18L117.31 510.87" stroke="hsl(240, 100%, 100%)" stroke-width="1.5"></path>
        <path d="M108.71 442.18L27.63 472.1" stroke="hsl(240, 100%, 100%)" stroke-width="1.5"></path>
        <path d="M108.71 442.18L161.14 513.27" stroke="hsl(240, 100%, 100%)" stroke-width="1.5"></path>
        <path d="M117.31 510.87L117.31 510.87" stroke="hsl(240, 100%, 100%)" stroke-width="1.5"></path>
        <path d="M117.31 510.87L161.14 513.27" stroke="hsl(240, 100%, 100%)" stroke-width="1.5"></path>
        <path d="M384.68 525.04L384.68 525.04" stroke="hsl(240, 100%, 100%)" stroke-width="1.5"></path>
        <path d="M384.68 525.04L401.93 590.2" stroke="hsl(240, 100%, 100%)" stroke-width="1.5"></path>
        <path d="M384.68 525.04L463.96 517.26" stroke="hsl(240, 100%, 100%)" stroke-width="1.5"></path>
        <path d="M384.68 525.04L385.31 443.68" stroke="hsl(240, 100%, 100%)" stroke-width="1.5"></path>
        <path d="M384.68 525.04L446.4 471.27" stroke="hsl(240, 100%, 100%)" stroke-width="1.5"></path>
        <path d="M452.25 240.58L452.25 240.58" stroke="hsl(240, 100%, 100%)" stroke-width="1.5"></path>
        <path d="M452.25 240.58L401.57 239.68" stroke="hsl(240, 100%, 100%)" stroke-width="1.5"></path>
        <path d="M452.25 240.58L439.63 175.49" stroke="hsl(240, 100%, 100%)" stroke-width="1.5"></path>
        <path d="M463.96 517.26L463.96 517.26" stroke="hsl(240, 100%, 100%)" stroke-width="1.5"></path>
        <path d="M463.96 517.26L446.4 471.27" stroke="hsl(240, 100%, 100%)" stroke-width="1.5"></path>
        <path d="M463.96 517.26L460.57 600.73" stroke="hsl(240, 100%, 100%)" stroke-width="1.5"></path>
        <path d="M463.96 517.26L401.93 590.2" stroke="hsl(240, 100%, 100%)" stroke-width="1.5"></path>
        <path d="M-32.47 462.18L-32.47 462.18" stroke="hsl(240, 100%, 100%)" stroke-width="1.5"></path>
        <path d="M-32.47 462.18L27.63 472.1" stroke="hsl(240, 100%, 100%)" stroke-width="1.5"></path>
        <path d="M-32.47 462.18L-33.71 527.71" stroke="hsl(240, 100%, 100%)" stroke-width="1.5"></path>
        <path d="M-32.47 462.18L51.7 540.2" stroke="hsl(240, 100%, 100%)" stroke-width="1.5"></path>
        <path d="M-33.71 527.71L-33.71 527.71" stroke="hsl(240, 100%, 100%)" stroke-width="1.5"></path>
        <path d="M-33.71 527.71L-19.9 589.1" stroke="hsl(240, 100%, 100%)" stroke-width="1.5"></path>
        <path d="M-33.71 527.71L27.63 472.1" stroke="hsl(240, 100%, 100%)" stroke-width="1.5"></path>
        <path d="M-33.71 527.71L22.61 607.14" stroke="hsl(240, 100%, 100%)" stroke-width="1.5"></path>
        <path d="M-19.9 589.1L-19.9 589.1" stroke="hsl(240, 100%, 100%)" stroke-width="1.5"></path>
        <path d="M-19.9 589.1L22.61 607.14" stroke="hsl(240, 100%, 100%)" stroke-width="1.5"></path>
        <path d="M-19.9 589.1L27.63 472.1" stroke="hsl(240, 100%, 100%)" stroke-width="1.5"></path>
        <path d="M27.63 472.1L27.63 472.1" stroke="hsl(240, 100%, 100%)" stroke-width="1.5"></path>
        <path d="M22.61 607.14L22.61 607.14" stroke="hsl(240, 100%, 100%)" stroke-width="1.5"></path>
        <path d="M120.2 580.81L120.2 580.81" stroke="hsl(240, 100%, 100%)" stroke-width="1.5"></path>
        <path d="M120.2 580.81L175.12 594.45" stroke="hsl(240, 100%, 100%)" stroke-width="1.5"></path>
        <path d="M120.2 580.81L117.31 510.87" stroke="hsl(240, 100%, 100%)" stroke-width="1.5"></path>
        <path d="M120.2 580.81L161.14 513.27" stroke="hsl(240, 100%, 100%)" stroke-width="1.5"></path>
        <path d="M120.2 580.81L22.61 607.14" stroke="hsl(240, 100%, 100%)" stroke-width="1.5"></path>
        <path d="M189.86 378.41L189.86 378.41" stroke="hsl(240, 100%, 100%)" stroke-width="1.5"></path>
        <path d="M189.86 378.41L258.68 396.04" stroke="hsl(240, 100%, 100%)" stroke-width="1.5"></path>
        <path d="M173.8 448.53L173.8 448.53" stroke="hsl(240, 100%, 100%)" stroke-width="1.5"></path>
        <path d="M173.8 448.53L161.14 513.27" stroke="hsl(240, 100%, 100%)" stroke-width="1.5"></path>
        <path d="M173.8 448.53L189.86 378.41" stroke="hsl(240, 100%, 100%)" stroke-width="1.5"></path>
        <path d="M173.8 448.53L252.93 453.4" stroke="hsl(240, 100%, 100%)" stroke-width="1.5"></path>
        <path d="M161.14 513.27L161.14 513.27" stroke="hsl(240, 100%, 100%)" stroke-width="1.5"></path>
        <path d="M161.14 513.27L175.12 594.45" stroke="hsl(240, 100%, 100%)" stroke-width="1.5"></path>
        <path d="M175.12 594.45L175.12 594.45" stroke="hsl(240, 100%, 100%)" stroke-width="1.5"></path>
        <path d="M175.12 594.45L243.62 582.28" stroke="hsl(240, 100%, 100%)" stroke-width="1.5"></path>
        <path d="M175.12 594.45L117.31 510.87" stroke="hsl(240, 100%, 100%)" stroke-width="1.5"></path>
        <path d="M255.17 323.14L255.17 323.14" stroke="hsl(240, 100%, 100%)" stroke-width="1.5"></path>
        <path d="M255.17 323.14L311 316.61" stroke="hsl(240, 100%, 100%)" stroke-width="1.5"></path>
        <path d="M255.17 323.14L258.68 396.04" stroke="hsl(240, 100%, 100%)" stroke-width="1.5"></path>
        <path d="M255.17 323.14L189.86 378.41" stroke="hsl(240, 100%, 100%)" stroke-width="1.5"></path>
        <path d="M255.17 323.14L321.25 382.99" stroke="hsl(240, 100%, 100%)" stroke-width="1.5"></path>
        <path d="M255.17 323.14L378.37 299.7" stroke="hsl(240, 100%, 100%)" stroke-width="1.5"></path>
        <path d="M258.68 396.04L258.68 396.04" stroke="hsl(240, 100%, 100%)" stroke-width="1.5"></path>
        <path d="M258.68 396.04L252.93 453.4" stroke="hsl(240, 100%, 100%)" stroke-width="1.5"></path>
        <path d="M258.68 396.04L321.25 382.99" stroke="hsl(240, 100%, 100%)" stroke-width="1.5"></path>
        <path d="M258.68 396.04L306.54 469.4" stroke="hsl(240, 100%, 100%)" stroke-width="1.5"></path>
        <path d="M252.93 453.4L252.93 453.4" stroke="hsl(240, 100%, 100%)" stroke-width="1.5"></path>
        <path d="M252.93 453.4L306.54 469.4" stroke="hsl(240, 100%, 100%)" stroke-width="1.5"></path>
        <path d="M252.93 453.4L189.86 378.41" stroke="hsl(240, 100%, 100%)" stroke-width="1.5"></path>
        <path d="M252.93 453.4L321.25 382.99" stroke="hsl(240, 100%, 100%)" stroke-width="1.5"></path>
        <path d="M243.62 582.28L243.62 582.28" stroke="hsl(240, 100%, 100%)" stroke-width="1.5"></path>
        <path d="M243.62 582.28L322.79 590.53" stroke="hsl(240, 100%, 100%)" stroke-width="1.5"></path>
        <path d="M243.62 582.28L161.14 513.27" stroke="hsl(240, 100%, 100%)" stroke-width="1.5"></path>
        <path d="M243.62 582.28L120.2 580.81" stroke="hsl(240, 100%, 100%)" stroke-width="1.5"></path>
        <path d="M329.2 107.26L329.2 107.26" stroke="hsl(240, 100%, 100%)" stroke-width="1.5"></path>
        <path d="M329.2 107.26L311.73 183.23" stroke="hsl(240, 100%, 100%)" stroke-width="1.5"></path>
        <path d="M329.2 107.26L397.49 162.26" stroke="hsl(240, 100%, 100%)" stroke-width="1.5"></path>
        <path d="M329.2 107.26L450.77 89.37" stroke="hsl(240, 100%, 100%)" stroke-width="1.5"></path>
        <path d="M311.73 183.23L311.73 183.23" stroke="hsl(240, 100%, 100%)" stroke-width="1.5"></path>
        <path d="M311.73 183.23L397.49 162.26" stroke="hsl(240, 100%, 100%)" stroke-width="1.5"></path>
        <path d="M311.73 183.23L401.57 239.68" stroke="hsl(240, 100%, 100%)" stroke-width="1.5"></path>
        <path d="M311 316.61L311 316.61" stroke="hsl(240, 100%, 100%)" stroke-width="1.5"></path>
        <path d="M311 316.61L321.25 382.99" stroke="hsl(240, 100%, 100%)" stroke-width="1.5"></path>
        <path d="M321.25 382.99L321.25 382.99" stroke="hsl(240, 100%, 100%)" stroke-width="1.5"></path>
        <path d="M321.25 382.99L387.98 401.93" stroke="hsl(240, 100%, 100%)" stroke-width="1.5"></path>
        <path d="M321.25 382.99L306.54 469.4" stroke="hsl(240, 100%, 100%)" stroke-width="1.5"></path>
        <path d="M321.25 382.99L385.31 443.68" stroke="hsl(240, 100%, 100%)" stroke-width="1.5"></path>
        <path d="M306.54 469.4L306.54 469.4" stroke="hsl(240, 100%, 100%)" stroke-width="1.5"></path>
        <path d="M306.54 469.4L385.31 443.68" stroke="hsl(240, 100%, 100%)" stroke-width="1.5"></path>
        <path d="M306.54 469.4L384.68 525.04" stroke="hsl(240, 100%, 100%)" stroke-width="1.5"></path>
        <path d="M322.79 590.53L322.79 590.53" stroke="hsl(240, 100%, 100%)" stroke-width="1.5"></path>
        <path d="M322.79 590.53L401.93 590.2" stroke="hsl(240, 100%, 100%)" stroke-width="1.5"></path>
        <path d="M388.85 -52.13L388.85 -52.13" stroke="hsl(240, 100%, 100%)" stroke-width="1.5"></path>
        <path d="M388.85 -52.13L445.11 -43.74" stroke="hsl(240, 100%, 100%)" stroke-width="1.5"></path>
        <path d="M388.85 -52.13L471.85 21.74" stroke="hsl(240, 100%, 100%)" stroke-width="1.5"></path>
        <path d="M388.85 -52.13L450.77 89.37" stroke="hsl(240, 100%, 100%)" stroke-width="1.5"></path>
        <path d="M397.49 162.26L397.49 162.26" stroke="hsl(240, 100%, 100%)" stroke-width="1.5"></path>
        <path d="M397.49 162.26L439.63 175.49" stroke="hsl(240, 100%, 100%)" stroke-width="1.5"></path>
        <path d="M397.49 162.26L401.57 239.68" stroke="hsl(240, 100%, 100%)" stroke-width="1.5"></path>
        <path d="M397.49 162.26L450.77 89.37" stroke="hsl(240, 100%, 100%)" stroke-width="1.5"></path>
        <path d="M401.57 239.68L401.57 239.68" stroke="hsl(240, 100%, 100%)" stroke-width="1.5"></path>
        <path d="M401.57 239.68L378.37 299.7" stroke="hsl(240, 100%, 100%)" stroke-width="1.5"></path>
        <path d="M401.57 239.68L439.63 175.49" stroke="hsl(240, 100%, 100%)" stroke-width="1.5"></path>
        <path d="M401.57 239.68L460.48 310.67" stroke="hsl(240, 100%, 100%)" stroke-width="1.5"></path>
        <path d="M378.37 299.7L378.37 299.7" stroke="hsl(240, 100%, 100%)" stroke-width="1.5"></path>
        <path d="M378.37 299.7L311 316.61" stroke="hsl(240, 100%, 100%)" stroke-width="1.5"></path>
        <path d="M378.37 299.7L460.48 310.67" stroke="hsl(240, 100%, 100%)" stroke-width="1.5"></path>
        <path d="M378.37 299.7L452.25 240.58" stroke="hsl(240, 100%, 100%)" stroke-width="1.5"></path>
        <path d="M378.37 299.7L321.25 382.99" stroke="hsl(240, 100%, 100%)" stroke-width="1.5"></path>
        <path d="M378.37 299.7L387.98 401.93" stroke="hsl(240, 100%, 100%)" stroke-width="1.5"></path>
        <path d="M387.98 401.93L387.98 401.93" stroke="hsl(240, 100%, 100%)" stroke-width="1.5"></path>
        <path d="M387.98 401.93L385.31 443.68" stroke="hsl(240, 100%, 100%)" stroke-width="1.5"></path>
        <path d="M387.98 401.93L440.67 396.54" stroke="hsl(240, 100%, 100%)" stroke-width="1.5"></path>
        <path d="M387.98 401.93L446.4 471.27" stroke="hsl(240, 100%, 100%)" stroke-width="1.5"></path>
        <path d="M385.31 443.68L385.31 443.68" stroke="hsl(240, 100%, 100%)" stroke-width="1.5"></path>
        <path d="M385.31 443.68L446.4 471.27" stroke="hsl(240, 100%, 100%)" stroke-width="1.5"></path>
        <path d="M385.31 443.68L440.67 396.54" stroke="hsl(240, 100%, 100%)" stroke-width="1.5"></path>
        <path d="M401.93 590.2L401.93 590.2" stroke="hsl(240, 100%, 100%)" stroke-width="1.5"></path>
        <path d="M401.93 590.2L460.57 600.73" stroke="hsl(240, 100%, 100%)" stroke-width="1.5"></path>
        <path d="M445.11 -43.74L445.11 -43.74" stroke="hsl(240, 100%, 100%)" stroke-width="1.5"></path>
        <path d="M445.11 -43.74L471.85 21.74" stroke="hsl(240, 100%, 100%)" stroke-width="1.5"></path>
        <path d="M445.11 -43.74L450.77 89.37" stroke="hsl(240, 100%, 100%)" stroke-width="1.5"></path>
        <path d="M471.85 21.74L471.85 21.74" stroke="hsl(240, 100%, 100%)" stroke-width="1.5"></path>
        <path d="M471.85 21.74L450.77 89.37" stroke="hsl(240, 100%, 100%)" stroke-width="1.5"></path>
        <path d="M471.85 21.74L439.63 175.49" stroke="hsl(240, 100%, 100%)" stroke-width="1.5"></path>
        <path d="M471.85 21.74L397.49 162.26" stroke="hsl(240, 100%, 100%)" stroke-width="1.5"></path>
        <path d="M450.77 89.37L450.77 89.37" stroke="hsl(240, 100%, 100%)" stroke-width="1.5"></path>
        <path d="M450.77 89.37L439.63 175.49" stroke="hsl(240, 100%, 100%)" stroke-width="1.5"></path>
        <path d="M450.77 89.37L452.25 240.58" stroke="hsl(240, 100%, 100%)" stroke-width="1.5"></path>
        <path d="M439.63 175.49L439.63 175.49" stroke="hsl(240, 100%, 100%)" stroke-width="1.5"></path>
        <path d="M460.48 310.67L460.48 310.67" stroke="hsl(240, 100%, 100%)" stroke-width="1.5"></path>
        <path d="M460.48 310.67L452.25 240.58" stroke="hsl(240, 100%, 100%)" stroke-width="1.5"></path>
        <path d="M440.67 396.54L440.67 396.54" stroke="hsl(240, 100%, 100%)" stroke-width="1.5"></path>
        <path d="M440.67 396.54L446.4 471.27" stroke="hsl(240, 100%, 100%)" stroke-width="1.5"></path>
        <path d="M440.67 396.54L460.48 310.67" stroke="hsl(240, 100%, 100%)" stroke-width="1.5"></path>
        <path d="M440.67 396.54L378.37 299.7" stroke="hsl(240, 100%, 100%)" stroke-width="1.5"></path>
        <path d="M440.67 396.54L321.25 382.99" stroke="hsl(240, 100%, 100%)" stroke-width="1.5"></path>
        <path d="M446.4 471.27L446.4 471.27" stroke="hsl(240, 100%, 100%)" stroke-width="1.5"></path>
        <path d="M460.57 600.73L460.57 600.73" stroke="hsl(240, 100%, 100%)" stroke-width="1.5"></path>
        <circle r="25" cx="51.7" cy="540.2" fill="url(&quot;#SvgjsRadialGradient1023&quot;)"></circle>
        <circle r="25" cx="108.71" cy="442.18" fill="url(&quot;#SvgjsRadialGradient1023&quot;)"></circle>
        <circle r="25" cx="117.31" cy="510.87" fill="url(&quot;#SvgjsRadialGradient1023&quot;)"></circle>
        <circle r="25" cx="384.68" cy="525.04" fill="url(&quot;#SvgjsRadialGradient1023&quot;)"></circle>
        <circle r="25" cx="452.25" cy="240.58" fill="url(&quot;#SvgjsRadialGradient1023&quot;)"></circle>
        <circle r="25" cx="463.96" cy="517.26" fill="url(&quot;#SvgjsRadialGradient1023&quot;)"></circle>
        <circle r="5" cx="-32.47" cy="462.18" fill="#ffffff"></circle>
        <circle r="5" cx="-33.71" cy="527.71" fill="#ffffff"></circle>
        <circle r="5" cx="-19.9" cy="589.1" fill="#ffffff"></circle>
        <circle r="5" cx="27.63" cy="472.1" fill="#ffffff"></circle>
        <circle r="5" cx="22.61" cy="607.14" fill="#ffffff"></circle>
        <circle r="5" cx="120.2" cy="580.81" fill="#ffffff"></circle>
        <circle r="5" cx="189.86" cy="378.41" fill="#ffffff"></circle>
        <circle r="5" cx="173.8" cy="448.53" fill="#ffffff"></circle>
        <circle r="5" cx="161.14" cy="513.27" fill="#ffffff"></circle>
        <circle r="5" cx="175.12" cy="594.45" fill="#ffffff"></circle>
        <circle r="5" cx="255.17" cy="323.14" fill="#ffffff"></circle>
        <circle r="5" cx="258.68" cy="396.04" fill="#ffffff"></circle>
        <circle r="5" cx="252.93" cy="453.4" fill="#ffffff"></circle>
        <circle r="5" cx="243.62" cy="582.28" fill="#ffffff"></circle>
        <circle r="5" cx="329.2" cy="107.26" fill="#ffffff"></circle>
        <circle r="5" cx="311.73" cy="183.23" fill="#ffffff"></circle>
        <circle r="5" cx="311" cy="316.61" fill="#ffffff"></circle>
        <circle r="5" cx="321.25" cy="382.99" fill="#ffffff"></circle>
        <circle r="5" cx="306.54" cy="469.4" fill="#ffffff"></circle>
        <circle r="5" cx="322.79" cy="590.53" fill="#ffffff"></circle>
        <circle r="5" cx="388.85" cy="-52.13" fill="#ffffff"></circle>
        <circle r="5" cx="397.49" cy="162.26" fill="#ffffff"></circle>
        <circle r="5" cx="401.57" cy="239.68" fill="#ffffff"></circle>
        <circle r="5" cx="378.37" cy="299.7" fill="#ffffff"></circle>
        <circle r="5" cx="387.98" cy="401.93" fill="#ffffff"></circle>
        <circle r="5" cx="385.31" cy="443.68" fill="#ffffff"></circle>
        <circle r="5" cx="401.93" cy="590.2" fill="#ffffff"></circle>
        <circle r="5" cx="445.11" cy="-43.74" fill="#ffffff"></circle>
        <circle r="5" cx="471.85" cy="21.74" fill="#ffffff"></circle>
        <circle r="5" cx="450.77" cy="89.37" fill="#ffffff"></circle>
        <circle r="5" cx="439.63" cy="175.49" fill="#ffffff"></circle>
        <circle r="5" cx="460.48" cy="310.67" fill="#ffffff"></circle>
        <circle r="5" cx="440.67" cy="396.54" fill="#ffffff"></circle>
        <circle r="5" cx="446.4" cy="471.27" fill="#ffffff"></circle>
        <circle r="5" cx="460.57" cy="600.73" fill="#ffffff"></circle>
    </g>
    <defs>
        <mask id="SvgjsMask1022">
            <rect width="420" height="560" fill="#ffffff"></rect>
        </mask>
        <radialGradient id="SvgjsRadialGradient1023">
            <stop stop-color="#ffffff" offset="0.1"></stop>
            <stop stop-color="rgba(254, 254, 255, 1)" offset="0.2"></stop>
            <stop stop-color="rgba(254, 254, 255, 0)" offset="1"></stop>
        </radialGradient>
    </defs>
</svg>