<?xml version="1.0" encoding="UTF-8"?>
<!DOCTYPE svg PUBLIC "-//W3C//DTD SVG 1.1//EN" "http://www.w3.org/Graphics/SVG/1.1/DTD/svg11.dtd">
<!-- Creator: CorelDRAW 2019 (64-Bit) -->
<svg xmlns="http://www.w3.org/2000/svg" xml:space="preserve" width="64px" height="64px" version="1.1"
  style="shape-rendering:geometricPrecision; text-rendering:geometricPrecision; image-rendering:optimizeQuality; fill-rule:evenodd; clip-rule:evenodd"
  viewBox="0 0 64 64" xmlns:xlink="http://www.w3.org/1999/xlink" xmlns:xodm="http://www.corel.com/coreldraw/odm/2003">
  <defs>
    <style type="text/css">
      <![CDATA[
      .fil0 {
        fill: #20A0CD
      }
      ]]>
    </style>
  </defs>
  <g id="Слой_x0020_1">
    <metadata id="CorelCorpID_0Corel-Layer" />
    <g id="_2710888597232">
      <path class="fil0"
        d="M30.81 13.33c-2.55,-0.57 -5,-3.64 -12.31,-2.18 -6.53,1.3 -10.02,5.84 -11.17,11.74 -0.96,4.9 1.57,8.45 -3.47,15.14 -0.58,0.77 -1.31,1.37 -1.62,2.39 0.63,1.82 2.95,3.45 5.3,3.99 3.57,0.83 5.28,-0.64 7.92,-1.22 -0.58,2.9 -3.86,3.27 -5.41,3.58 -2.42,0.49 -4.62,1.43 -6.23,2.7 -2.73,2.16 -3.28,5.75 -3.6,9.98 -0.44,5.68 -2.36,4.2 21.87,4.2 3.22,0 20.35,0.35 21.84,-0.25 0.52,-1.66 -0.13,-6.19 -0.51,-8.05 -0.71,-3.49 -0.94,-4.4 -3.19,-5.99 -5.88,-4.18 -7.97,-1.3 -10.89,-4.95l-0.49 -1.04c-0.03,-0.59 0.38,-0.64 0.85,-0.49 0.06,0.02 0.74,0.41 0.76,0.42 6.92,3.78 11.76,-2.01 11.53,-3.11 -0.85,-1.42 -1.94,-1.55 -2.93,-3.88 -0.72,-1.7 -1.29,-3.6 -1.39,-5.58 3.46,1.49 5.15,3.24 10.82,2.86 15.61,-1.06 21.68,-21.91 7.61,-30.86 -2.85,-1.81 -6.93,-3 -10.97,-2.4 -5.72,0.84 -9.62,3.73 -12.32,8.13 -1.11,1.81 -1.17,2.87 -2,4.87zm-26.26 27.43c2.76,1.88 5.15,2.79 9.21,1 -0.72,-2.05 -2.32,-1.43 -2.24,-8.91l0.17 -9.79c0.22,-2.13 1.58,-0.94 4.84,0.43 2.9,1.22 7.14,2.42 10.37,2.46 1.82,0.02 4.13,-0.8 5.25,-0.21 0.45,1.52 0.25,6.53 0.27,8.49 0.03,3.89 -0.48,4.2 -1.81,6.92 2.55,1.69 7.32,2.28 8.97,-0.82 -1.47,-1.05 -2.37,-3.12 -3.01,-5.22 -0.94,-3.1 -0.7,-5.96 -1.62,-6.86 -2.96,-2.93 -4.43,-6.91 -4.44,-12.56 -3.07,-2.15 -6.06,-3.48 -10.91,-2.77 -6.36,0.93 -9.53,5.27 -10.48,10.85 -0.68,3.97 1.16,6.85 -1.84,12.4 -0.63,1.17 -2.54,3.78 -2.73,4.59zm9.08 -16.38c-0.16,2.82 -0.11,5.85 -0.18,8.69 -0.07,3.34 0.11,5.15 1.79,7.31 2.99,3.83 9.16,4.18 12.91,0.6 2.97,-2.84 2.33,-6.99 2.31,-11.12 -0.02,-2.58 0.36,-2.21 -1.93,-2.02 -5.7,0.45 -10.51,-1.9 -14.9,-3.46zm13.63 12.69c-1.4,-0.75 -1.38,0.18 -2.12,0.89 -1.31,1.26 -4,1.31 -5.44,0.26 -1.11,-0.8 -0.45,-1.61 -2.1,-1.36 -1.45,1.99 1.83,3.87 4.26,4.02 2.5,0.16 6.21,-1.44 5.4,-3.81zm-10.7 -6.56c-0.19,1.44 0.02,1.58 1.39,1.59 2.44,0 1.97,-1.91 0.23,-1.92 -0.67,0 -1.28,0.02 -1.62,0.33zm8.08 0.22c0.1,1.89 2.12,1.71 3.14,0.79 -0.08,-1.9 -2.14,-1.62 -3.14,-0.79zm-4.15 19.14c-2.45,-0.24 -3.5,-0.73 -4.75,-2.11 -0.51,0.38 -0.59,0.44 -0.76,1.2 -0.86,3.79 3.58,6.49 5.51,0.91zm3.67 0.19c0.65,1.42 1.76,3.79 3.94,2.81 2.11,-0.94 1.64,-3.53 1.06,-5.08 -0.72,0.35 -1.19,0.94 -2.2,1.41 -0.85,0.4 -2.15,0.44 -2.8,0.86zm2.75 -5.77c-4.58,1.42 -4.99,1.64 -9.64,0.12 -1.05,1.14 -0.43,2.08 0.75,2.83 2.19,1.43 12.76,0.99 8.89,-2.95zm-3.63 8.48l0 8.94 18.88 0.06c0,-2.73 -0.57,-8.45 -2.05,-9.99 -2.07,-2.17 -5.08,-2.88 -8.66,-3.55 0.46,5.61 -2.77,7.63 -5.76,6.49 -1.6,-0.61 -1.51,-1.33 -2.41,-1.95zm-21.2 8.99l19.26 0 0.01 -9.13c-3.7,4.71 -9.06,2.05 -8.18,-4.46 -3.65,0.57 -6.74,1.46 -8.89,3.37 -1.6,1.43 -2.28,7.34 -2.2,10.22zm43.41 -59.53c-8.54,1.39 -14.12,8.38 -12.96,16.5 1.06,7.52 7.73,13.99 16.53,12.86 7.55,-0.96 14.04,-7.8 12.9,-16.61 -0.93,-7.16 -7.93,-14.14 -16.47,-12.75zm-0.84 23.93c1.54,-1.61 0.78,-2.22 0.77,-4.57 -0.01,-1.89 1.04,-3.63 2.82,-2.27 1.1,0.84 0.54,3.22 0.51,4.6 -0.04,2.01 1.26,3.07 2.74,1.61 1.77,-1.76 3.36,-4.34 3.1,-8.03 -0.2,-2.77 3.28,-5.51 0.57,-8.55 -2.7,-3.04 -5.5,0.02 -8.74,-0.4 -1.85,-0.23 -2.34,-1.13 -4.73,-0.59 -3.19,0.72 -4.15,3.87 -2.39,6.98 1.23,2.16 0.26,2.09 0.61,4.73 0.37,2.79 2.19,6.5 4.74,6.49zm-1.07 -2.8c-0.09,-3.13 0,-6.15 3.31,-6.32 3.68,-0.19 4.01,2.85 3.9,6.25 2.46,-1.62 1.73,-6.11 1.81,-7.2 0.08,-1 3.46,-5.55 0.2,-6.43 -1.45,-0.39 -3.55,0.78 -5.27,0.87 -2.22,0.12 -3.55,-1.04 -5.24,-0.72 -3.89,0.75 -0.53,5.17 -0.42,6.05 0.22,1.7 -0.99,4.29 1.71,7.5z" />
    </g>
  </g>
</svg>