<svg xmlns="http://www.w3.org/2000/svg" width="66" height="77" viewBox="0 0 66 77">
  <path fill="#20A0CD"
    d="M24.29 1.66c-4.7,0.68 -9.34,2.76 -13.31,5.97 -1.51,1.23 -4.03,3.83 -5.21,5.42 -1.97,2.66 -3.55,5.88 -4.37,8.96 -0.32,1.18 -0.38,1.77 -0.4,3.43 -0.01,1.87 0.02,2.06 0.37,2.83 0.51,1.08 1.38,2.03 2.16,2.38 0.58,0.26 0.63,0.33 0.79,1.13 0.1,0.46 0.34,1.5 0.53,2.28l0.36 1.45 -0.46 0.62c-0.61,0.86 -0.88,1.51 -0.96,2.49 -0.29,2.59 1.33,5.42 3.8,6.68 0.77,0.38 1.17,0.49 2.15,0.55l1.2 0.06 0.25 0.71c0.13,0.38 0.55,1.23 0.92,1.86 1.88,3.3 4.6,5.82 8.29,7.66l1.35 0.68 -0.14 0.78c-0.26,1.47 -0.65,1.87 -2.13,2.25 -3.57,0.92 -11.28,5.34 -12.66,7.23 -0.99,1.39 -0.86,3.26 0.36,4.47 0.69,0.68 2.57,1.66 4.9,2.52 8.16,3.05 20.51,3.24 29.32,0.47l1.61 -0.51 0.64 0.37c1.7,1 4.53,1.68 6.93,1.68 3.73,0 7.15,-1.37 9.89,-3.98 2.89,-2.72 4.35,-5.95 4.52,-9.86 0.17,-4.21 -1.14,-7.72 -4.02,-10.71 -1.91,-1.98 -4.04,-3.25 -6.84,-4.05 -1.58,-0.46 -5.51,-0.49 -7.02,-0.08 -1.6,0.46 -3.17,1.11 -4.13,1.73 -0.5,0.33 -0.9,0.55 -0.9,0.52 0,-0.04 0.29,-0.59 0.65,-1.23 0.35,-0.62 0.77,-1.45 0.92,-1.82l0.26 -0.69 1.2 -0.06c0.92,-0.06 1.37,-0.17 2,-0.49 2.48,-1.26 3.91,-3.54 3.91,-6.22 0,-1.27 -0.29,-2.16 -1.04,-3.14l-0.38 -0.5 0.37 -1.44c0.21,-0.78 0.46,-1.82 0.55,-2.28 0.16,-0.8 0.21,-0.87 0.78,-1.14 1.13,-0.5 2.08,-1.84 2.49,-3.48 0.39,-1.53 -0.18,-5.12 -1.18,-7.69 -3.5,-8.78 -11.55,-15.65 -20.51,-17.5 -2.27,-0.47 -5.7,-0.6 -7.81,-0.31l0 0zm7.32 2.01c9.31,1.83 17.93,9.91 20.09,18.84 0.71,2.95 0.54,4.89 -0.57,6.06 -0.55,0.56 -0.6,0.57 -1.54,0.57 -2.43,0 -4.25,-1.22 -4.91,-3.28 -0.04,-0.14 -0.23,-0.36 -0.42,-0.49 -0.3,-0.2 -0.43,-0.21 -0.76,-0.06 -0.4,0.18 -0.44,0.28 -0.59,1.2 -0.12,0.65 -0.76,1.24 -1.51,1.39 -0.73,0.13 -2.36,-0.03 -3.22,-0.33 -0.4,-0.13 -1.03,-0.54 -1.49,-0.94 -0.79,-0.73 -1.13,-1.34 -1.42,-2.49 -0.31,-1.22 -1.46,-1.22 -1.78,0 -0.1,0.38 -0.38,0.83 -0.7,1.12 -1.09,1.04 -3.71,2.02 -5.37,2.02 -2.43,0 -6.07,-1.87 -6.07,-3.1 0,-0.46 -0.49,-0.96 -0.92,-0.96 -0.39,0 -0.86,0.4 -0.86,0.74 0,1.23 -1.52,3.14 -2.89,3.61 -1.15,0.39 -2.88,0.48 -3.67,0.18 -0.67,-0.25 -1.14,-0.84 -1.14,-1.42 0,-0.75 -0.62,-1.27 -1.23,-1.05 -0.26,0.1 -0.44,0.35 -0.62,0.92 -0.55,1.66 -2.21,2.75 -4.35,2.9 -1.46,0.1 -1.88,-0.1 -2.46,-1.17 -1.32,-2.41 0.01,-7.86 3.08,-12.53 4.25,-6.47 11,-10.93 18.14,-11.95 1.95,-0.28 5.12,-0.19 7.18,0.22l0 0zm-10.31 23.31c2.11,1.5 5.08,2.34 7.11,2.02 1.88,-0.31 3.79,-1.07 5.14,-2.05 0.56,-0.41 0.75,-0.49 0.8,-0.32 0.04,0.11 0.4,0.56 0.8,0.97l0.72 0.77 -1.05 0.15c-1.21,0.18 -1.48,0.34 -1.48,0.94 0,0.65 0.43,0.84 1.62,0.75 0.62,-0.04 1.61,0.03 2.53,0.19 1.77,0.3 2.22,0.24 2.22,-0.29 0,-0.36 0.04,-0.37 0.86,-0.37 1.09,0 2.25,-0.34 2.84,-0.83l0.44 -0.39 0.03 1.17c0.11,3.76 -0.16,8.49 -0.62,11.37 -0.63,4 -1.76,6.61 -3.92,9.16l-0.82 0.96 -1.03 -0.28c-1.02,-0.3 -1.07,-0.3 -1.6,-0.03 -0.42,0.2 -0.61,0.41 -0.76,0.87 -0.19,0.56 -0.19,0.65 0.09,1.2l0.31 0.59 -1.29 0.7c-4.2,2.2 -7.5,2.49 -11.5,0.98 -4.38,-1.65 -7.73,-4.65 -9.61,-8.61 -1.38,-2.94 -1.98,-6.54 -2.24,-13.46 -0.06,-1.51 -0.06,-3.12 0,-3.58l0.11 -0.83 0.9 0.47c0.84,0.43 1.01,0.46 2.41,0.46 1.44,0 1.5,0.02 1.44,0.31 -0.1,0.6 0.31,0.73 1.57,0.51 0.62,-0.12 1.85,-0.22 2.74,-0.24 1.79,-0.03 2.07,-0.15 2,-0.86 -0.06,-0.64 -0.62,-0.87 -2.1,-0.89l-1.2 -0.01 0.63 -0.58c0.36,-0.33 0.74,-0.77 0.89,-1.01 0.13,-0.22 0.27,-0.41 0.28,-0.41 0.03,0 0.36,0.22 0.74,0.5l0 0zm-12.24 4.64c0,0.89 0.04,1.83 0.09,2.13l0.08 0.53 -0.93 0.09c-0.52,0.06 -1.08,0.12 -1.23,0.15 -0.25,0.03 -0.34,-0.16 -0.6,-1.3 -0.18,-0.74 -0.37,-1.54 -0.42,-1.81l-0.09 -0.46 1.07 -0.25c0.59,-0.13 1.23,-0.33 1.43,-0.44 0.21,-0.12 0.42,-0.21 0.49,-0.23 0.06,0 0.11,0.71 0.11,1.59l0 0zm37.47 -1.31c0.36,0.17 1.03,0.36 1.49,0.45l0.83 0.18 -0.29 1.36c-0.41,2.09 -0.53,2.37 -0.91,2.25 -0.17,-0.05 -0.71,-0.13 -1.19,-0.18l-0.87 -0.09 0.1 -1.33c0.05,-0.74 0.09,-1.69 0.09,-2.13 0,-0.43 0.03,-0.79 0.06,-0.79 0.03,0 0.34,0.14 0.69,0.28l0 0zm-37.27 6.12c0.05,0.19 0.09,0.71 0.09,1.17l0 0.83 -0.71 -0.15c-0.92,-0.19 -1.42,-0.06 -1.64,0.44 -0.15,0.35 -0.13,0.45 0.1,0.77 0.15,0.21 0.45,0.4 0.64,0.43 0.67,0.08 1.61,0.37 1.76,0.54 0.12,0.16 0.74,3 0.74,3.45 0,0.32 -1.08,0.22 -1.88,-0.18 -0.95,-0.47 -1.88,-1.48 -2.38,-2.56 -0.33,-0.68 -0.4,-1.07 -0.4,-1.97 0,-0.98 0.06,-1.2 0.4,-1.73 0.56,-0.83 1.52,-1.32 2.65,-1.35 0.44,-0.02 0.56,0.04 0.63,0.31l0 0zm38.71 0.22c0.92,0.58 1.29,1.32 1.28,2.56 -0.02,0.63 -0.14,1.29 -0.36,1.85 -0.61,1.57 -2.46,3.04 -3.82,3.04l-0.56 0 0.28 -1.53c0.16,-0.82 0.31,-1.59 0.34,-1.7 0.07,-0.26 1.52,-0.92 2.04,-0.92 0.88,0 1.31,-0.99 0.68,-1.55 -0.29,-0.27 -0.87,-0.25 -2.09,0.01l-0.37 0.09 0.06 -1.02c0.03,-0.55 0.08,-1.09 0.12,-1.21 0.12,-0.34 1.62,-0.11 2.4,0.38l0 0zm5.05 12.41c5.97,1.26 10.23,6.44 10.23,12.44 0,3.63 -1.35,6.78 -3.97,9.28 -5.12,4.89 -13.06,4.7 -17.97,-0.44 -1.78,-1.87 -2.93,-4.13 -3.38,-6.63 -0.29,-1.63 -0.13,-4.3 0.36,-5.77 0.57,-1.8 0.53,-2.41 -0.34,-3.92 -0.4,-0.68 -0.73,-1.27 -0.7,-1.29 0.02,-0.03 0.5,0.09 1.07,0.27 1.61,0.47 2.34,0.26 3.86,-1.07 1.6,-1.39 3.73,-2.46 5.82,-2.87 1.32,-0.27 3.76,-0.27 5.02,0l0 0zm-16.33 6.25c0.23,0.32 0.26,1.06 0.04,1.63 -0.09,0.22 -0.28,0.98 -0.43,1.67l-0.26 1.26 -0.55 -0.03c-0.76,-0.06 -1.57,-0.49 -1.88,-1.02 -0.14,-0.24 -0.31,-0.79 -0.39,-1.2l-0.13 -0.79 1.64 -0.87c0.91,-0.49 1.68,-0.89 1.71,-0.89 0.03,-0.01 0.14,0.11 0.25,0.24l0 0zm-11.94 2.35c1.48,0.31 3.78,0.31 5.3,0 0.69,-0.15 1.26,-0.23 1.28,-0.2 0.01,0.03 0.16,0.48 0.29,1.05 0.48,1.79 1.32,2.53 3.54,3.14l0.85 0.23 0 0.58c0,0.52 -0.09,0.65 -0.89,1.36 -1.69,1.48 -3.53,2.52 -5.81,3.28 -4.1,1.37 -9.52,1.27 -12.45,-0.23 -1.36,-0.68 -2.65,-2.44 -2.19,-2.99 0.24,-0.28 3.6,-1.77 4.86,-2.17 2.5,-0.77 3.21,-1.4 3.7,-3.26 0.13,-0.56 0.29,-1.02 0.34,-1.02 0.04,0 0.58,0.1 1.18,0.23l0 0zm-10.57 9.44c3.9,3.85 14.13,3.59 20.21,-0.49 0.52,-0.36 1.17,-0.85 1.45,-1.08l0.52 -0.45 0.31 0.95c0.76,2.22 1.82,3.98 3.44,5.63l1.09 1.12 -1.45 0.39c-4.38,1.18 -6.99,1.49 -12.18,1.49 -4.56,-0.01 -6.7,-0.19 -10.01,-0.87 -3.16,-0.65 -6.9,-2 -8.62,-3.1 -0.85,-0.53 -1.17,-1.24 -0.93,-2.04 0.2,-0.65 0.88,-1.24 3.25,-2.81l1.53 -1.01 0.41 0.84c0.22,0.48 0.67,1.11 0.98,1.43l0 0z" />
  <path fill="#20A0CD"
    d="M17.7 34.12c-1.14,0.41 -1.58,1.18 -0.97,1.73 0.34,0.31 0.72,0.31 1.4,0.03 0.76,-0.31 1.68,-0.28 2.33,0.09 0.69,0.39 1.27,0.3 1.48,-0.24 0.21,-0.54 -0.07,-1.02 -0.89,-1.46 -0.58,-0.31 -0.89,-0.39 -1.72,-0.37 -0.56,0 -1.28,0.1 -1.63,0.22l0 0z" />
  <path fill="#20A0CD"
    d="M34.27 34.1c-0.63,0.29 -1.23,0.88 -1.23,1.26 0,0.39 0.51,0.89 0.91,0.89 0.16,0 0.47,-0.13 0.68,-0.29 0.46,-0.36 1.58,-0.4 2.37,-0.08 0.7,0.3 1.12,0.28 1.42,-0.04 0.53,-0.6 0.24,-1.11 -0.93,-1.65 -0.8,-0.37 -2.49,-0.41 -3.22,-0.09l0 0z" />
  <path fill="#20A0CD"
    d="M26.38 36.73c-0.8,0.41 -1.03,0.97 -0.68,1.52 0.3,0.44 0.82,0.49 1.44,0.12 0.4,-0.24 0.46,-0.24 0.86,0 0.62,0.37 1.14,0.32 1.43,-0.12 0.36,-0.55 0.12,-1.11 -0.68,-1.52 -0.35,-0.18 -0.89,-0.33 -1.18,-0.33 -0.3,0 -0.83,0.15 -1.19,0.33l0 0z" />
  <path fill="#20A0CD"
    d="M22.59 41.05c-0.71,0.31 -1.51,1.09 -1.7,1.67 -0.48,1.45 0.81,4.73 2.32,5.93 1.23,0.96 2.49,1.37 4.24,1.37 3.4,0 5.82,-2.14 6.5,-5.8 0.16,-0.86 0.15,-1.01 -0.12,-1.63 -0.33,-0.73 -0.99,-1.3 -1.81,-1.59 -0.75,-0.25 -8.82,-0.2 -9.43,0.05l0 0zm9.36 1.95c0.27,0.27 0.36,0.48 0.30,0.70 -0.05,0.18 -0.09,0.41 -0.09,0.50 0,0.15 -1.05,0.20 -4.74,0.20l-4.73 0 -0.10 -0.55c-0.09,-0.48 -0.04,-0.59 0.30,-0.89 0.40,-0.34 0.43,-0.34 4.54,-0.34l4.15 0 0.37 0.38 0 0zm-0.68 3.28c0,0.28 -0.82,1.06 -1.50,1.45 -0.66,0.35 -1.02,0.44 -2.07,0.49 -0.74,0.04 -1.50,-0.02 -1.79,-0.11 -0.77,-0.25 -1.81,-0.96 -2.18,-1.48l-0.32 -0.46 3.92 0c2.16,0 3.94,0.05 3.94,0.11z" />
  <path fill="#20A0CD"
    d="M45.39 53.89c-1.02,0.29 -1.88,1.05 -2.42,2.12 -0.49,0.97 -0.52,1.09 -0.52,2.51 0,1.78 0.32,2.93 1.43,5.26 1.03,2.13 1.11,2.38 1.53,4.31 0.59,2.69 1.18,3.55 2.47,3.55 1.22,0 1.75,-0.96 2.06,-3.82 0.25,-2.29 0.36,-2.38 0.56,-0.53 0.23,1.95 0.40,2.77 0.71,3.42 0.52,1.09 1.97,1.23 2.80,0.28 0.48,-0.55 0.77,-1.41 1.37,-3.95 0.16,-0.73 0.63,-1.99 1.11,-2.97 1.31,-2.73 1.51,-3.46 1.51,-5.53 0,-1.65 -0.03,-1.84 -0.40,-2.53 -1.10,-2.09 -3.47,-2.82 -6.15,-1.90 -1.18,0.41 -1.29,0.40 -2.59,-0.07 -0.90,-0.33 -2.59,-0.40 -3.47,-0.15l0 0zm3.32 1.98c1.32,0.46 1.76,0.46 3.07,0 2.11,-0.75 3.70,-0.34 4.31,1.10 0.11,0.28 0.20,0.97 0.20,1.60 0,1.31 -0.52,2.99 -1.52,5.03 -0.74,1.47 -1.04,2.33 -1.35,3.82 -0.33,1.62 -0.53,2.31 -0.68,2.22 -0.13,-0.07 -0.37,-1.45 -0.52,-2.96 -0.26,-2.77 -1.02,-3.98 -2.28,-3.70 -0.95,0.21 -1.35,1.21 -1.72,4.25 -0.13,1.04 -0.28,2.04 -0.35,2.22 -0.14,0.34 -0.14,0.33 -0.31,-0.10 -0.09,-0.26 -0.30,-1.06 -0.45,-1.78 -0.35,-1.67 -0.66,-2.56 -1.61,-4.53 -2.62,-5.44 -1.16,-8.69 3.21,-7.17l0 0z" />
  <path fill="#20A0CD"
    d="M51.02 59.04l-1.15 1.04 -0.43 -0.37c-0.54,-0.46 -1.20,-0.48 -1.50,-0.03 -0.34,0.47 -0.29,0.63 0.30,1.30 0.63,0.70 1.38,0.95 2.13,0.74 0.58,-0.16 2.89,-2.19 3.04,-2.68 0.14,-0.46 -0.30,-1.02 -0.82,-1.02 -0.32,0 -0.71,0.25 -1.57,1.02l0 0z" />
  <path fill="#20A0CD"
    d="M9.22 50.72c-0.18,0.15 -0.64,0.80 -1.02,1.43 -0.64,1.07 -0.79,1.23 -1.73,1.75 -1.38,0.76 -1.77,1.20 -1.66,1.87 0.12,0.66 0.29,0.86 1.29,1.36 1.19,0.61 1.65,1.04 2.22,2.10 0.63,1.22 0.83,1.42 1.42,1.54 0.66,0.12 1.11,-0.17 1.63,-1.08 0.90,-1.60 1.06,-1.79 2.19,-2.41 1.24,-0.68 1.57,-1.04 1.57,-1.70 0,-0.60 -0.34,-0.95 -1.53,-1.62 -1.06,-0.59 -1.57,-1.11 -2.10,-2.18 -0.21,-0.38 -0.52,-0.84 -0.70,-1.02 -0.40,-0.37 -1.15,-0.38 -1.58,-0.04l0 0zm1.11 2.59c0.34,0.68 1.21,1.57 1.88,1.91 0.30,0.16 0.55,0.34 0.55,0.40 -0.02,0.06 -0.36,0.30 -0.79,0.55 -0.54,0.31 -0.94,0.71 -1.39,1.36l-0.62 0.93 -0.56 -0.86c-0.34,-0.51 -0.89,-1.06 -1.41,-1.42l-0.84 -0.58 0.86,-0.54c0.60,-0.40 1.00,-0.80 1.36,-1.39 0.28,-0.45 0.55,-0.83 0.60,-0.83 0.06,0 0.23,0.22 0.36,0.47l0 0z" />
</svg>