<svg xmlns="http://www.w3.org/2000/svg" width="66" height="77" viewBox="0 0 66 77">
  <path fill="#20A0CD" stroke="#20A0CD" stroke-width="1.25"
    d="M24.05 1.84c-0.51,0.26 -0.77,0.53 -1.04,1.06l-0.35 0.72 0.39 3.25c0.28,2.34 0.46,3.39 0.67,3.72 0.34,0.62 1.13,1.15 1.86,1.25l0.58 0.11 0 2.07c0,1.9 0.03,2.13 0.3,2.4 0.16,0.16 0.43,0.3 0.6,0.3 0.16,0 0.44,-0.14 0.6,-0.3 0.27,-0.27 0.3,-0.5 0.3,-2.4l0 -2.09 0.69 -0.1c0.82,-0.12 1.78,-0.89 2.01,-1.63 0.07,-0.27 0.27,-1.47 0.4,-2.71 0.23,-1.96 0.29,-2.21 0.53,-2.21 0.15,0 2.67,0.43 5.57,0.98 2.91,0.54 5.35,0.97 5.42,0.97 0.06,0 0.26,0.32 0.44,0.71 0.37,0.86 1.2,1.76 2.03,2.2 0.6,0.33 0.69,0.33 10,0.38 8.62,0.03 9.41,0.01 9.66,-0.21 0.36,-0.34 0.36,-1 0.02,-1.31 -0.26,-0.23 -0.85,-0.26 -5.42,-0.26l-5.15 0 0 -1.02c0,-1.13 -0.24,-1.54 -0.88,-1.54 -0.63,0 -0.93,0.51 -0.93,1.58l0 0.98 -3.02 0c-2.49,0 -3.12,-0.05 -3.54,-0.24 -1.52,-0.72 -1.66,-2.83 -0.23,-3.78l0.51 -0.35 9.13 0c10.05,0 9.8,0.03 9.8,-0.9 0,-0.95 0.45,-0.9 -9.83,-0.9l-9.37 0 -0.75 0.36c-0.83,0.37 -1.66,1.22 -1.97,2 -0.12,0.27 -0.27,0.5 -0.35,0.5 -0.13,0 -10.58,-1.91 -11.11,-2.03 -0.2,-0.05 -0.35,-0.18 -0.35,-0.29 0,-0.35 -0.76,-1.18 -1.31,-1.39 -0.34,-0.15 -1.2,-0.21 -2.87,-0.21 -2.17,0 -2.44,0.03 -3.04,0.33l0 0zm5.42 1.71c0.27,0.33 -0.36,5.9 -0.71,6.27 -0.33,0.38 -3.07,0.4 -3.37,0.03 -0.27,-0.33 -0.92,-5.88 -0.73,-6.24 0.14,-0.26 0.35,-0.29 2.38,-0.29 1.83,0 2.28,0.05 2.43,0.23z" />
  <path fill="#20A0CD" stroke="#20A0CD" stroke-width="1.25"
    d="M12.83 16.43c-2.56,0.33 -5.25,1.45 -7.03,2.91 -4.44,3.67 -5.92,10.72 -3.94,18.91 0.9,3.7 2.63,8.11 4.92,12.49 3.03,5.83 3.33,6.66 4.92,14.29 1.33,6.28 2.14,8.6 3.56,10.1 0.96,1.03 1.89,1.4 3.37,1.33 1.44,-0.06 2.18,-0.5 2.86,-1.67 1.05,-1.82 1.55,-4.23 2.33,-11.23 0.6,-5.36 0.86,-7.1 1.3,-8.83 0.45,-1.77 0.96,-2.75 1.58,-3.05 0.48,-0.23 0.54,-0.23 0.92,0.06 1.22,0.9 1.8,3.51 2.75,11.95 0.74,6.63 1.18,8.82 2.11,10.71 0.53,1.02 1.44,1.89 2.18,2.03 0.83,0.15 2.35,0 2.98,-0.3 1.42,-0.7 2.7,-2.7 3.54,-5.59 0.24,-0.83 0.83,-3.34 1.3,-5.57 1.47,-6.97 2.07,-8.84 4.24,-12.87 6.2,-11.62 7.97,-20.87 5.24,-27.7 -1.1,-2.77 -3.18,-5.14 -5.56,-6.36 -2.51,-1.28 -4.3,-1.68 -7.3,-1.67 -2.48,0 -4.53,0.39 -6.7,1.28 -4.59,1.87 -6,1.93 -9.57,0.41 -3.6,-1.52 -6.78,-2.03 -10,-1.63l0 0zm2.32 2.4c0.38,1.29 1.31,1.86 1.97,1.2 0.38,-0.37 0.38,-0.66 0,-1.29l-0.31 -0.5 0.57 0.07c1.35,0.2 3.54,0.88 4.82,1.5 1.07,0.52 1.68,0.96 2.83,2.01 1.61,1.51 2.47,2 3.62,2.1 0.73,0.06 0.82,0.03 1.04,-0.34 0.23,-0.33 0.24,-0.48 0.11,-0.78 -0.18,-0.37 -0.44,-0.53 -1.46,-0.8 -0.33,-0.09 -0.84,-0.34 -1.12,-0.58l-0.52 -0.44 1.14 -0.11c1.55,-0.13 2.56,-0.42 4.38,-1.20 1.57,-0.69 3.66,-1.29 4.43,-1.29 0.24,0 0.54,0.13 0.69,0.30 0.36,0.42 0.95,0.37 1.39,-0.09 0.37,-0.40 0.40,-0.41 1.83,-0.32 4.16,0.26 7.59,2.42 9.28,5.83 3.20,6.54 1.53,15.68 -5.09,27.85 -1.78,3.26 -2.55,5.64 -3.99,12.40 -1.36,6.34 -1.91,8.07 -3.01,9.32 -0.66,0.76 -1.19,1.01 -2.08,1.01 -0.66,0 -0.80,-0.06 -1.20,-0.53 -0.97,-1.08 -1.54,-3.80 -2.37,-11.21 -0.79,-7.09 -1.17,-9.02 -2.10,-10.95 -0.61,-1.22 -1.31,-1.91 -2.20,-2.15 -1.43,-0.39 -2.62,0.27 -3.48,1.90 -1.02,1.95 -1.46,4.15 -2.30,11.68 -0.77,6.96 -1.39,9.80 -2.34,10.81 -0.34,0.38 -0.54,0.45 -1.11,0.45 -1.40,0 -2.16,-0.62 -3.04,-2.48 -0.61,-1.27 -1.15,-3.27 -2.17,-8.13 -1.43,-6.73 -1.94,-8.22 -4.52,-13.25 -1.07,-2.08 -2.24,-4.52 -2.63,-5.42 -1.66,-3.87 -2.86,-7.96 -3.24,-10.96 -0.27,-2.15 -0.12,-5.86 0.30,-7.48 0.63,-2.44 2.03,-4.87 3.49,-6.05 1.99,-1.63 4.73,-2.64 7.22,-2.67l0.99 -0.01 0.18 0.60 0 0z" />
  <path fill="#20A0CD" stroke="#20A0CD" stroke-width="1.25"
    d="M35.67 19.53c-0.32,0.34 -0.75,0.97 -0.99,1.42 -0.48,0.93 -0.47,1.50 0.07,1.81 0.54,0.28 1.01,0.04 1.40,-0.74 0.20,-0.39 0.54,-0.94 0.75,-1.22 0.61,-0.80 0.47,-1.51 -0.33,-1.75 -0.28,-0.07 -0.46,0.02 -0.90,0.48z" />
  <path fill="#20A0CD" stroke="#20A0CD" stroke-width="1.25"
    d="M17.68 20.45c-0.50,0.54 -0.32,0.97 0.86,2.11 1.17,1.14 1.53,1.30 2.04,0.78 0.52,-0.51 0.38,-0.89 -0.79,-2.06 -1.18,-1.17 -1.64,-1.35 -2.11,-0.83l0 0z" />
  <path fill="#20A0CD" stroke="#20A0CD" stroke-width="1.25"
    d="M34.09 23.76c-0.15,0.17 -0.26,0.53 -0.26,0.91 0,0.44 -0.10,0.74 -0.37,1.05 -0.50,0.59 -0.48,1.16 0,1.48 0.86,0.57 2.00,-0.59 2.13,-2.19 0.08,-0.75 0.05,-0.97 -0.18,-1.21 -0.34,-0.38 -1.00,-0.40 -1.32,-0.04l0 0z" />
  <path fill="#20A0CD" stroke="#20A0CD" stroke-width="1.25"
    d="M20.22 24.34c-0.52,0.52 -0.07,1.77 0.98,2.68 0.77,0.64 1.49,0.73 1.85,0.21 0.37,-0.51 0.31,-0.66 -0.46,-1.45 -0.41,-0.39 -0.85,-0.93 -0.98,-1.20 -0.20,-0.38 -0.35,-0.48 -0.71,-0.48 -0.24,0 -0.56,0.10 -0.68,0.24l0 0z" />
  <path fill="#20A0CD" stroke="#20A0CD" stroke-width="1.25"
    d="M24.09 26.88c-0.42,0.30 -0.45,0.98 -0.07,1.33 0.30,0.27 1.71,0.55 2.75,0.55 0.57,0 0.77,-0.07 0.95,-0.33 0.30,-0.43 0.30,-0.62 -0.03,-1.02 -0.19,-0.24 -0.51,-0.35 -1.23,-0.45 -0.55,-0.06 -1.22,-0.17 -1.51,-0.21 -0.38,-0.08 -0.63,-0.03 -0.86,0.13l0 0z" />
  <path fill="#20A0CD" stroke="#20A0CD" stroke-width="1.25"
    d="M30.30 26.84c-1.31,0.19 -1.65,0.40 -1.71,1.02 -0.09,0.92 0.68,1.11 2.68,0.68 1.01,-0.21 1.36,-0.48 1.36,-1.07 0,-0.78 -0.50,-0.92 -2.33,-0.63l0 0z" />
</svg>