<svg width="78" height="78" viewBox="0 0 78 78" fill="none" xmlns="http://www.w3.org/2000/svg">
<path d="M21.2249 21.5898C20.3763 21.5898 19.6819 22.2859 19.6819 23.1367V23.8173C19.6819 24.4516 19.1573 24.9775 18.5247 24.9775C17.8921 24.9775 17.3675 24.467 17.3675 23.8173V23.1367C17.3675 22.2859 16.6732 21.5898 15.8245 21.5898C14.9759 21.5898 14.2816 22.2859 14.2816 23.1367V23.8173C14.2816 26.1531 16.1948 28.0713 18.5247 28.0713C20.8546 28.0713 22.7679 26.1686 22.7679 23.8173V23.1367C22.7679 22.2859 22.0735 21.5898 21.2249 21.5898Z" fill="#0097C4"/>
<path d="M32.0257 28.0556C34.3556 28.0556 36.1917 26.153 36.1917 23.8017V23.1211C36.1917 22.2703 35.4974 21.5742 34.6487 21.5742C33.8001 21.5742 33.1058 22.2703 33.1058 23.1211V23.8017C33.1058 24.4359 32.6583 24.9619 32.0257 24.9619C31.3931 24.9619 30.9456 24.4514 30.9456 23.8017V23.1211C30.9456 22.2703 30.2513 21.5742 29.4026 21.5742C28.554 21.5742 27.8597 22.2703 27.8597 23.1211V23.8017C27.8597 26.153 29.6958 28.0556 32.0257 28.0556Z" fill="#0097C4"/>
<path d="M69.3808 50.8723C68.0384 49.5265 66.1714 48.8149 64.2582 48.9696C63.317 49.0469 62.314 49.2171 61.2648 49.4955C60.447 49.7121 59.9533 50.5629 60.1693 51.3827C60.3853 52.2026 61.2339 52.6976 62.0517 52.481C62.9158 52.249 63.749 52.1098 64.4896 52.0479C65.4925 51.9705 66.4646 52.3418 67.1589 53.0688C67.8533 53.7958 68.1927 54.7704 68.0847 55.7604C67.7916 58.4983 66.8349 62.7058 64.0884 67.6404L61.8666 63.5257C61.4808 62.8141 60.7402 62.381 59.9224 62.381C59.1047 62.3965 58.3795 62.8605 58.0091 63.5876L56.0341 67.5476C53.3185 62.6594 52.3927 58.4829 52.0841 55.7604C51.9761 54.7704 52.3156 53.7804 53.0099 53.0533C53.6425 52.4037 54.5066 52.0324 55.4015 52.0169C55.5558 52.1871 55.7718 52.481 55.9416 52.713C57.1296 54.2908 59.3515 57.2454 63.6564 56.704C64.505 56.5957 65.1068 55.8223 64.9988 54.9715C64.8908 54.1207 64.1193 53.5174 63.2707 53.6257C60.9254 53.9196 59.7218 52.6048 58.4103 50.8413C57.7005 49.8977 57.0371 49.016 55.9416 48.9232C54.0128 48.7685 52.1459 49.4801 50.8035 50.8723C49.4611 52.2644 48.813 54.1671 49.0291 56.0698C49.3839 59.3646 50.5875 64.5621 54.2443 70.564C54.6609 71.2446 55.4015 71.6468 56.1884 71.6158C56.9754 71.5849 57.6851 71.1208 58.04 70.4093L59.9841 66.5112L62.1443 70.5021C62.5146 71.1827 63.2244 71.6158 63.9959 71.6468C64.0113 71.6468 64.0267 71.6468 64.0576 71.6468C64.8136 71.6468 65.5234 71.2446 65.9091 70.5949C69.5814 64.5776 70.7849 59.3646 71.1552 56.0543C71.3713 54.1516 70.7232 52.2644 69.3808 50.8723Z" fill="#0097C4"/>
<path d="M59.4905 40.8638C53.6427 40.8638 48.4429 43.6173 45.0946 47.9176C43.1814 46.7574 41.0058 46.1387 38.7376 46.1387H32.4886V44.4526C38.0433 41.8848 42.0241 36.4862 42.5333 30.0976C44.6318 29.6335 46.2519 27.7463 46.2519 25.5034C46.2519 23.2759 44.678 21.4041 42.6722 20.9246V14.4277H44.8478C45.6964 14.4277 46.3907 13.7007 46.3907 12.8499C46.3907 6.05914 40.8823 0.505859 34.1241 0.505859H23.0765C20.6849 0.505859 18.5864 1.74336 17.3366 3.58414C11.7665 3.92445 8.8966 8.16289 8.04796 12.1538C7.98624 12.4632 7.93995 12.788 7.93995 13.1284V20.9091C5.93409 21.4041 4.32941 23.2604 4.32941 25.4879C4.32941 27.7309 5.93409 29.618 8.04796 30.0821C8.588 36.7027 12.8929 42.2715 18.7562 44.7001V46.1232H12.5071C5.70265 46.1387 0.24054 51.692 0.24054 58.5137V73.5648C0.24054 74.4155 0.873157 75.0652 1.72179 75.0652H25.3601H49.9241C50.063 75.0652 50.1864 75.0498 50.3099 75.0188C53.0101 76.5966 56.1423 77.4938 59.4905 77.4938C69.5661 77.4938 77.7593 69.2799 77.7593 59.1788C77.7593 49.0777 69.5661 40.8638 59.4905 40.8638ZM7.95538 26.7099C7.64679 26.416 7.41534 25.9984 7.41534 25.5188C7.41534 25.0393 7.64679 24.6216 7.95538 24.3123V26.7099ZM37.1175 60.1843C37.1175 61.3909 36.13 62.3809 34.9265 62.3809C33.723 62.3809 32.7355 61.3909 32.7355 60.1843C32.7355 58.9777 33.723 57.9877 34.9265 57.9877C36.13 57.9877 37.1175 58.9623 37.1175 60.1843ZM43.2122 25.5188C43.2122 25.9984 42.9808 26.416 42.6722 26.7254V24.3277C42.9808 24.6062 43.2122 25.0393 43.2122 25.5188ZM19.6048 5.88898C19.6202 5.84258 19.6511 5.7807 19.6665 5.7343C20.2991 4.4968 21.5952 3.61508 23.0765 3.61508H34.1241C38.6605 3.61508 42.4407 7.0182 43.1814 11.3495H23.0765C20.9626 11.3495 19.2499 9.61695 19.2499 7.48227C19.2499 6.92539 19.3734 6.36852 19.6048 5.88898ZM11.0259 13.1438C11.0413 13.0355 11.0568 12.9273 11.0722 12.819C11.211 12.2002 11.6431 10.576 12.7386 9.16836C13.6335 8.0082 14.7907 7.25023 16.1948 6.90992C16.1794 7.09555 16.164 7.29664 16.164 7.48227C16.164 10.2048 17.7378 12.556 20.006 13.6852C16.6269 17.1038 12.8775 17.7071 11.0259 17.7535V13.1438ZM11.0413 28.6744V20.8473C13.8187 20.7854 19.0956 19.8573 23.5085 14.4432H39.5862V28.6744C39.5862 36.548 33.1675 42.9521 25.3138 42.9521C17.4601 42.9521 11.0413 36.5326 11.0413 28.6744ZM23.8634 71.987H3.32648V58.5291C3.32648 53.7184 6.87531 49.7584 11.6585 49.3098V52.0013C8.88116 52.7129 6.87531 55.2188 6.87531 58.1888V64.9951C6.87531 65.8459 7.53878 66.5729 8.38741 66.5729H10.3161C11.1648 66.5729 11.8591 65.8768 11.8591 65.026C11.8591 64.1752 11.1648 63.4791 10.3161 63.4791H9.96124V58.2198C9.96124 56.3945 11.3808 54.9249 13.2015 54.9249C15.0222 54.9249 16.4417 56.4099 16.4417 58.2198V63.4791H15.6394C14.7907 63.4791 14.0964 64.1752 14.0964 65.026C14.0964 65.8768 14.7907 66.5729 15.6394 66.5729H18.0618C18.9105 66.5729 19.5431 65.8459 19.5431 64.9951V58.2198C19.5431 55.2034 17.5372 52.6819 14.7599 52.0013V49.2479H19.5894L23.8634 53.7338V71.987ZM21.8421 47.0823V45.6746C22.9222 45.9066 24.1103 46.0304 25.3138 46.0304C26.7333 46.0304 28.1683 45.8602 29.4026 45.5354V47.0513L25.4218 50.9185L21.8421 47.0823ZM26.9339 53.7802L31.5937 49.2479H33.4144V55.126C31.2542 55.7912 29.665 57.8021 29.665 60.1843C29.665 63.0924 32.0257 65.4746 34.9265 65.4746C37.8273 65.4746 40.2034 63.1079 40.2034 60.1843C40.2034 57.8021 38.645 55.7912 36.4849 55.126V49.2479H38.7376C40.404 49.2479 41.9933 49.6965 43.3974 50.5163C42.0087 53.0996 41.2218 56.0541 41.2218 59.1943C41.2218 64.1752 43.2122 68.6766 46.4216 71.987H26.9339V53.7802ZM59.4905 74.431C51.1122 74.431 44.3077 67.5938 44.3077 59.2098C44.3077 50.8257 51.1276 43.9885 59.4905 43.9885C67.8534 43.9885 74.6734 50.8257 74.6734 59.2098C74.6734 67.5938 67.8534 74.431 59.4905 74.431Z" fill="#0097C4"/>
</svg>
