<?xml version="1.0" encoding="UTF-8"?>
<!DOCTYPE svg PUBLIC "-//W3C//DTD SVG 1.1//EN" "http://www.w3.org/Graphics/SVG/1.1/DTD/svg11.dtd">
<!-- Creator: CorelDRAW 2019 (64-Bit) -->
<svg xmlns="http://www.w3.org/2000/svg" xml:space="preserve" width="66px" height="98px" version="1.1" style="shape-rendering:geometricPrecision; text-rendering:geometricPrecision; image-rendering:optimizeQuality; fill-rule:evenodd; clip-rule:evenodd"
viewBox="0 0 66 98"
 xmlns:xlink="http://www.w3.org/1999/xlink"
 xmlns:xodm="http://www.corel.com/coreldraw/odm/2003">
 <defs>
  <style type="text/css">
   <![CDATA[
    .fil1 {fill:black}
    .fil0 {fill:#20A0CD}
    .fil5 {fill:#4DABE7}
    .fil2 {fill:#4E8EC4}
    .fil3 {fill:#DCF1F2}
    .fil4 {fill:#FEFBFD}
   ]]>
  </style>
 </defs>
 <g id="Слой_x0020_1">
  <metadata id="CorelCorpID_0Corel-Layer"/>
  <g id="_1969422476944">
   <path class="fil0" d="M15.4 14.5c-0.04,0.61 0.09,1.45 0.31,1.92 0.26,0 2.37,-0.72 3.65,-0.91 1.4,-0.21 2.99,-0.3 4.47,-0.23 5.82,0.26 10.04,1.86 15.44,3.06 1.9,0.42 6.12,1.4 8.03,1.22 -0.08,-0.23 0.17,-0.18 -0.74,-0.48l-2.85 -0.9c-0.87,-0.26 -3.1,-0.85 -3.55,-1.45l3.11 -1.48c3.87,-1.42 7.41,-2.32 11.61,-1.03 4.44,1.37 7.84,4.83 8.08,10.43 0.24,5.67 -1.89,10.45 -3.97,14.55 -1.66,3.26 -4.04,9.78 -5.22,13.36 -1.51,4.58 -3.12,9.47 -4.01,14.52 -0.71,4.07 -0.35,4.79 -0.48,8.76 -0.14,4.59 -1.01,11.54 -2.73,15.72 -0.45,1.1 -1.71,3.88 -3.11,3.77 -0.77,-0.06 -0.96,-0.56 -1.02,-1.31 -0.5,-5.97 -0.12,-11.16 -1.99,-16.6 -1.58,-4.57 -4.44,-7.92 -9.86,-8.65 -6.48,-0.87 -6.78,6.27 -6.09,11.81 0.35,2.76 0.7,5.35 1.16,8.09 0.2,1.24 0.45,2.75 0.49,4.03 0.03,1.06 0.02,1.16 -0.69,1.62 -0.55,0.34 -1.1,0.59 -1.82,0.31 -1.25,-0.48 -3.04,-3.97 -3.63,-5.6 -2.23,-6.11 -4.2,-15.98 -5.41,-22.44 -2.11,-11.27 -8.47,-28.13 -6.41,-39.1 0.26,-1.4 0.49,-2.49 0.94,-3.74 0.51,-1.41 1.45,-2.89 1.54,-3.16 -0.42,-0.34 -1.25,-0.61 -1.87,-0.72 -1.38,2.71 -1.84,3.41 -2.49,6.76 -1,5.17 -0.37,11.69 0.75,16.84 0.55,2.48 1.06,5.12 1.71,7.49 -0.96,1.23 -11.15,5.16 -6.58,10.48 1.19,1.38 3.71,3 5.44,4.2 1.16,0.81 3.07,2.19 3.97,3.25 0.78,0.9 -0.39,1.38 0.2,1.85 0.52,0.36 1.21,-0.2 1.48,-0.37 0.19,0.34 1.42,6.57 1.62,7.52 0.52,2.49 1.11,4.91 1.78,7.34 1.38,4.9 4.6,14.91 10.33,10.44 1.1,-0.85 1.25,-1.53 1.12,-3.47 -0.31,-4.93 -3.3,-16.04 -1,-20.18 0.64,-1.14 1.58,-1.45 3.23,-1.24 10.12,1.24 9.57,14.41 9.98,22.03 0.07,1.41 0.13,2.9 0.97,3.66 1.99,1.77 4.41,0.68 5.87,-1.66 3.51,-5.66 4.25,-16.68 4.17,-23.39 0.63,0.34 0.63,0.76 2.1,1.33 1.99,0.77 3.63,0.58 2.4,-0.67 -0.72,-0.73 -1.84,-1.62 -2.02,-2.43 3.99,-2.91 11,-3.26 10.79,-7.62 -0.09,-1.8 -2.87,-4.55 -3.74,-5.45l-3.53 -3.37c-0.36,-0.31 -0.96,-0.8 -1.23,-1.13 -0.13,-0.43 3.18,-8.74 3.63,-9.71 1.37,-3 3.05,-5.99 4.02,-9.29 1.01,-3.48 1.83,-7.84 0.72,-11.59 -1.1,-3.71 -2.94,-6.12 -5.7,-7.72 -6.54,-3.8 -15.3,-1.97 -20.83,1.63 -0.84,0.55 -0.75,0.43 -2.4,-0.02 -0.92,-0.25 -1.75,-0.48 -2.67,-0.69 -5.83,-1.38 -11.79,-2.28 -17.47,-0.19z"/>
   <path class="fil1" d="M50.81 43.88c-2.49,2.62 -3.67,4.1 -7.42,5.93 -3.1,1.51 -7.17,2.5 -11.25,1.98 -4.07,-0.52 -7.04,-1.77 -9.74,-3.67 -1.34,-0.95 -2.5,-2 -3.55,-3.15 -1.15,-1.26 -2.65,-3.7 -2.84,-3.88 -0.16,9.31 5.87,18.78 16.1,19.77 5.48,0.53 10.21,-2.54 12.73,-5.04 1.38,-1.38 2.7,-3.14 3.76,-5.18 0.7,-1.35 2.2,-4.99 2.21,-6.76z"/>
   <path class="fil2" d="M24.67 28.49c-3.2,0.63 -5.9,3.4 -5.27,7.36 0.49,3.07 3.59,5.98 7.36,5.26 3.14,-0.59 5.93,-3.45 5.27,-7.38 -0.53,-3.1 -3.57,-5.98 -7.36,-5.24z"/>
   <path class="fil2" d="M42.49 29.98c-8.73,1.05 -7.29,13.33 1.04,12.75 3.31,-0.23 6.06,-3.2 5.79,-6.9 -0.23,-3.2 -3.24,-6.28 -6.83,-5.85z"/>
   <path class="fil3" d="M1.16 16.81c0.1,0.12 0.01,0.06 0.18,0.15l2.27 0.57c2.1,0.6 5.73,1.51 7.43,2.23 0.73,0.32 0.64,0.96 0.76,2.36 0.26,2.93 0.16,6.71 0.27,9.54 0.31,-0.62 0.93,-3.96 1.14,-4.94l0.55 -2.49c0.2,-0.81 0.39,-1.73 0.64,-2.49 0.51,-1.54 -0.03,-1.93 3.81,-2.39l5.48 -0.63 -7.65 -1.33c-1.22,-0.27 -1.2,-0.33 -1.27,-1.78 -0.27,-5.24 -0.36,-9.73 -0.46,-14.96 -0.14,0.24 -0.7,4.62 -0.86,5.39l-0.63 4.16c-0.23,1.5 -0.81,4.84 -1.23,6.18 -0.29,0.92 -1.67,0.64 -3.1,0.63 -1.24,0 -2.43,-0.06 -3.66,-0.05 -1.23,0.02 -2.54,-0.22 -3.67,-0.15z"/>
   <path class="fil4" d="M42.13 31.03c-6.43,1.47 -4.24,10.61 1.84,9.41 2.28,-0.45 4.31,-2.77 3.74,-5.66 -0.43,-2.2 -2.74,-4.39 -5.58,-3.75z"/>
   <path class="fil4" d="M24.59 29.54c-2.8,0.85 -4.13,3.38 -3.47,5.84 0.57,2.14 2.88,4.23 5.81,3.45 2.22,-0.58 4.2,-2.83 3.49,-5.84 -0.5,-2.13 -2.98,-4.31 -5.83,-3.45z"/>
   <path class="fil4" d="M43.39 51.69c-0.41,0.06 -1.89,0.73 -2.46,0.93 -5.12,1.8 -9.52,1.77 -14.52,-0.39 -1.63,-0.7 -4.28,-2.39 -4.55,-2.48 0.14,2.08 2.36,3.91 3.63,4.73 5.66,3.64 15.74,2.71 17.9,-2.79z"/>
   <path class="fil1" d="M26.42 29.9c0.28,0.96 0.17,1.9 -0.95,1.83 -1.04,-0.05 -1.13,-0.93 -0.83,-1.79 -1.3,0.39 -2.53,1.8 -2.11,3.72 0.22,1.04 1.18,2.07 2.07,2.31 0.75,0.2 0.4,-0.24 1.07,-0.33 0.77,-0.1 0.77,0.85 2.05,-0.29 2.02,-1.8 0.98,-5.07 -1.3,-5.45z"/>
   <path class="fil1" d="M41.88 31.46c-2.51,0.59 -3.38,4.98 0.23,6.08 0.45,-0.31 0.71,-0.98 1.73,-0.09 1.23,-0.27 2.26,-1.61 2.2,-3.15 -0.06,-1.62 -1.56,-2.94 -2.45,-2.89 0.55,0.63 0.24,1.72 -0.67,1.82 -1.12,0.11 -1.4,-0.92 -1.04,-1.77z"/>
   <path class="fil1" d="M17.33 29.64c0.69,-0.01 1.77,-1.51 2.74,-2.34 2.13,-1.8 4.69,-2.94 7.66,-2.17 1.62,0.42 2.93,1.47 3.57,1.51 0.25,-1.14 -1.95,-2.59 -2.88,-3.03 -5.49,-2.58 -11.26,3.05 -11.09,6.03z"/>
   <path class="fil1" d="M37.36 25.35c1.08,0.19 6.04,-3.66 11.09,1.89 0.42,0.46 0.73,0.87 1.15,1.39 0.35,0.43 0.78,1.24 1.35,1.29 0.59,-2.36 -4.01,-9.1 -10.21,-7.25 -1.21,0.36 -3.28,1.56 -3.38,2.68z"/>
   <path class="fil4" d="M51.9 66.57c0.69,-0.79 2.03,-1.75 3.1,-2.42 0.6,-0.37 1.12,-0.67 1.71,-1.03 0.55,-0.35 1.26,-0.64 1.77,-1.09 -0.21,-0.43 -3.94,-3.68 -4.41,-3.89 -0.69,2.62 -1.78,5.68 -2.17,8.43z"/>
   <path class="fil4" d="M6.39 58.88c0.37,0.66 2.07,2.03 2.81,2.84 0.25,0.28 2.64,2.88 2.9,3.01 -0.09,-0.83 -1.73,-7.62 -1.99,-8.06 -0.64,0.26 -3.31,1.8 -3.72,2.21z"/>
   <path class="fil2" d="M38.47 64.26c-1.66,-0.01 -4.61,2.01 -9.87,0.51 -0.83,-0.24 -2.2,-0.92 -2.98,-0.92 0.07,0.85 1.65,1.72 2.49,2.12 4.53,2.21 10.2,-0.21 10.36,-1.71z"/>
   <path class="fil5" d="M23.69 31.3c-1.37,1.67 -0.09,4.06 1.96,4.04 2.77,-0.03 2.94,-3.55 1.76,-4.17 0.41,2.92 -2.24,3.17 -3.27,2 -0.53,-0.61 -0.43,-1.02 -0.45,-1.87z"/>
   <path class="fil5" d="M40.91 32.94c-0.79,0.52 -0.57,2.07 -0.17,2.73 0.41,0.65 1.2,1.28 2.37,1.17 2,-0.19 3.11,-2.92 1.56,-4.16 0.08,1.16 -0.04,2.48 -1.66,2.63 -1.54,0.15 -2.09,-1.01 -2.1,-2.37z"/>
   <path class="fil2" d="M36.77 42.56c-0.81,0.21 -1.41,1.74 -3.5,1.5 -1.85,-0.22 -2.19,-1.81 -2.95,-1.96 -0.18,1.67 1.38,3.01 2.95,3.12 1.85,0.13 3.47,-1 3.5,-2.66z"/>
  </g>
 </g>
</svg>
